<svg xmlns="http://www.w3.org/2000/svg" xml:space="preserve" id="Layer_1" x="0" y="0" style="enable-background:new 0 0 4000 4000" version="1.1" viewBox="0 0 4000 4000"><style>.st1{fill:#fff}</style><linearGradient id="SVGID_1_" x1="2000.205" x2="2000.205" y1="1338.128" y2="2271.562" gradientUnits="userSpaceOnUse"><stop offset="0" style="stop-color:#0080bf"/><stop offset="1" style="stop-color:#074b92"/></linearGradient><path d="M3523.63 1669.15H1666.02c-13.35 0-25.59 4.68-35.21 12.47-70.93-277.74-322.81-483.11-622.65-483.11-354.9 0-642.6 287.7-642.6 642.6s287.7 642.6 642.6 642.6c292.61 0 539.54-195.58 617.2-463.15 9.97 10.36 23.97 16.83 39.49 16.83h1858.78c61.42 0 111.22-49.79 111.22-111.22v-145.81c0-61.42-49.79-111.21-111.22-111.21z" style="fill:url(#SVGID_1_)"/><path d="M1520.87 1792.64c-22.09 0-40.86 14.44-47.39 34.37h-193.14v-90.31c0-4.13-1.65-8.1-4.59-11.01l-151.71-150.39c-2.9-2.88-6.82-4.49-10.91-4.49h-88.96v-193.14c19.93-6.54 34.37-25.3 34.37-47.39 0-27.5-22.37-49.87-49.87-49.87s-49.87 22.37-49.87 49.87c0 22.09 14.44 40.86 34.37 47.39v193.14h-91.54c-4.13 0-8.1 1.65-11.01 4.59l-149.14 150.39a15.49 15.49 0 0 0-4.49 10.91v90.31H543.73c-6.54-19.93-25.3-34.37-47.39-34.37-27.5 0-49.87 22.37-49.87 49.87 0 27.5 22.37 49.87 49.87 49.87 22.09 0 40.86-14.44 47.39-34.37h193.26v89.55c0 4.09 1.62 8.02 4.5 10.92l149.79 150.87c2.91 2.93 6.87 4.58 11 4.58h90.89v194.29c-19.93 6.54-34.37 25.3-34.37 47.39 0 27.5 22.37 49.87 49.87 49.87s49.87-22.37 49.87-49.87c0-22.09-14.44-40.86-34.37-47.39v-194.29h92.18c4.14 0 8.11-1.66 11.02-4.6l148.5-150.23a15.5 15.5 0 0 0 4.48-10.9v-90.19h193.14c6.54 19.93 25.3 34.37 47.39 34.37 27.5 0 49.87-22.37 49.87-49.87-.01-27.5-22.38-49.87-49.88-49.87zm-1024.54 68.74c-10.41 0-18.87-8.47-18.87-18.87 0-10.41 8.47-18.87 18.87-18.87 10.41 0 18.87 8.47 18.87 18.87.01 10.4-8.46 18.87-18.87 18.87zm493.46-531.1c0-10.41 8.47-18.87 18.87-18.87s18.87 8.47 18.87 18.87-8.47 18.87-18.87 18.87-18.87-8.46-18.87-18.87zm37.75 1025.33c0 10.41-8.47 18.87-18.87 18.87s-18.87-8.47-18.87-18.87c0-10.41 8.47-18.87 18.87-18.87s18.87 8.46 18.87 18.87zm221.8-413.78-139.47 141.1H908.72l-140.74-141.76v-198.09l140.1-141.27h198.66l142.59 141.35v198.67zm271.53-80.45c-10.41 0-18.87-8.47-18.87-18.87 0-10.41 8.47-18.87 18.87-18.87 10.41 0 18.87 8.47 18.87 18.87s-8.46 18.87-18.87 18.87z" class="st1"/><path d="M826.57 1495.09c0 27.5 22.37 49.87 49.87 49.87s49.87-22.37 49.87-49.87c0-22.27-14.68-41.18-34.87-47.56v-52.18c20.19-6.38 34.87-25.29 34.87-47.56 0-27.5-22.37-49.87-49.87-49.87s-49.87 22.37-49.87 49.87c0 22.27 14.68 41.18 34.87 47.56v52.18c-20.19 6.38-34.87 25.29-34.87 47.56zm31-147.31c0-10.41 8.47-18.87 18.87-18.87 10.41 0 18.87 8.47 18.87 18.87s-8.47 18.87-18.87 18.87-18.87-8.46-18.87-18.87zm18.87 128.44c10.41 0 18.87 8.47 18.87 18.87s-8.47 18.87-18.87 18.87c-10.41 0-18.87-8.47-18.87-18.87s8.47-18.87 18.87-18.87zM1092.29 1495.09c0 27.5 22.37 49.87 49.87 49.87s49.87-22.37 49.87-49.87c0-22.27-14.68-41.18-34.87-47.56v-52.18c20.19-6.38 34.87-25.29 34.87-47.56 0-27.5-22.37-49.87-49.87-49.87s-49.87 22.37-49.87 49.87c0 22.27 14.68 41.18 34.87 47.56v52.18c-20.19 6.38-34.87 25.29-34.87 47.56zm31-147.31c0-10.41 8.47-18.87 18.87-18.87 10.41 0 18.87 8.47 18.87 18.87s-8.47 18.87-18.87 18.87c-10.41 0-18.87-8.46-18.87-18.87zm18.87 128.44c10.41 0 18.87 8.47 18.87 18.87s-8.47 18.87-18.87 18.87c-10.41 0-18.87-8.47-18.87-18.87s8.46-18.87 18.87-18.87zM926.31 2190.36c0-27.5-22.37-49.87-49.87-49.87s-49.87 22.37-49.87 49.87c0 22.27 14.68 41.18 34.87 47.56v52.18c-20.19 6.38-34.87 25.29-34.87 47.56 0 27.5 22.37 49.87 49.87 49.87s49.87-22.37 49.87-49.87c0-22.27-14.68-41.18-34.87-47.56v-52.18c20.19-6.38 34.87-25.29 34.87-47.56zm-31 147.31c0 10.41-8.47 18.87-18.87 18.87-10.41 0-18.87-8.47-18.87-18.87s8.47-18.87 18.87-18.87c10.41-.01 18.87 8.46 18.87 18.87zm-18.87-128.44c-10.41 0-18.87-8.47-18.87-18.87 0-10.41 8.47-18.87 18.87-18.87 10.41 0 18.87 8.47 18.87 18.87 0 10.41-8.46 18.87-18.87 18.87zM1192.03 2190.36c0-27.5-22.37-49.87-49.87-49.87s-49.87 22.37-49.87 49.87c0 22.27 14.68 41.18 34.87 47.56v52.18c-20.19 6.38-34.87 25.29-34.87 47.56 0 27.5 22.37 49.87 49.87 49.87s49.87-22.37 49.87-49.87c0-22.27-14.68-41.18-34.87-47.56v-52.18c20.19-6.38 34.87-25.29 34.87-47.56zm-31 147.31c0 10.41-8.47 18.87-18.87 18.87-10.41 0-18.87-8.47-18.87-18.87s8.47-18.87 18.87-18.87c10.41-.01 18.87 8.46 18.87 18.87zm-18.87-128.44c-10.41 0-18.87-8.47-18.87-18.87 0-10.41 8.47-18.87 18.87-18.87 10.41 0 18.87 8.47 18.87 18.87 0 10.41-8.46 18.87-18.87 18.87zM513.87 1760c22.09 0 40.86-14.44 47.39-34.37h56.79c6.54 19.93 25.3 34.37 47.39 34.37 27.5 0 49.87-22.37 49.87-49.87s-22.37-49.87-49.87-49.87c-22.09 0-40.86 14.44-47.39 34.37h-56.79c-6.54-19.93-25.3-34.37-47.39-34.37-27.5 0-49.87 22.37-49.87 49.87s22.37 49.87 49.87 49.87zm151.58-68.75c10.41 0 18.87 8.47 18.87 18.87 0 10.41-8.47 18.87-18.87 18.87-10.41 0-18.87-8.47-18.87-18.87s8.46-18.87 18.87-18.87zm-151.58 0c10.41 0 18.87 8.47 18.87 18.87 0 10.41-8.47 18.87-18.87 18.87-10.41 0-18.87-8.47-18.87-18.87s8.46-18.87 18.87-18.87zM561.26 1990.14h56.79c6.54 19.93 25.3 34.37 47.39 34.37 27.5 0 49.87-22.37 49.87-49.87 0-27.5-22.37-49.87-49.87-49.87-22.09 0-40.86 14.44-47.39 34.37h-56.79c-6.54-19.93-25.3-34.37-47.39-34.37-27.5 0-49.87 22.37-49.87 49.87 0 27.5 22.37 49.87 49.87 49.87 22.09 0 40.86-14.44 47.39-34.37zm104.19-34.37c10.41 0 18.87 8.47 18.87 18.87s-8.47 18.87-18.87 18.87c-10.41 0-18.87-8.47-18.87-18.87s8.46-18.87 18.87-18.87zm-151.58 37.74c-10.41 0-18.87-8.47-18.87-18.87s8.47-18.87 18.87-18.87c10.41 0 18.87 8.47 18.87 18.87s-8.46 18.87-18.87 18.87zM1457.01 1694.75h-56.79c-6.54-19.93-25.3-34.37-47.39-34.37-27.5 0-49.87 22.37-49.87 49.87 0 27.5 22.37 49.87 49.87 49.87 22.09 0 40.86-14.44 47.39-34.37h56.79c6.54 19.93 25.3 34.37 47.39 34.37 27.5 0 49.87-22.37 49.87-49.87 0-27.5-22.37-49.87-49.87-49.87-22.09 0-40.86 14.44-47.39 34.37zm-104.18 34.37c-10.41 0-18.87-8.47-18.87-18.87 0-10.41 8.47-18.87 18.87-18.87 10.41 0 18.87 8.47 18.87 18.87 0 10.41-8.47 18.87-18.87 18.87zm151.57-37.74c10.41 0 18.87 8.47 18.87 18.87 0 10.41-8.47 18.87-18.87 18.87-10.41 0-18.87-8.47-18.87-18.87 0-10.41 8.47-18.87 18.87-18.87zM1504.4 1924.89c-22.09 0-40.86 14.44-47.39 34.37h-56.79c-6.54-19.93-25.3-34.37-47.39-34.37-27.5 0-49.87 22.37-49.87 49.87 0 27.5 22.37 49.87 49.87 49.87 22.09 0 40.86-14.44 47.39-34.37h56.79c6.54 19.93 25.3 34.37 47.39 34.37 27.5 0 49.87-22.37 49.87-49.87 0-27.49-22.37-49.87-49.87-49.87zm-151.57 68.75c-10.41 0-18.87-8.47-18.87-18.87s8.47-18.87 18.87-18.87c10.41 0 18.87 8.47 18.87 18.87s-8.47 18.87-18.87 18.87zm151.57 0c-10.41 0-18.87-8.47-18.87-18.87s8.47-18.87 18.87-18.87c10.41 0 18.87 8.47 18.87 18.87s-8.46 18.87-18.87 18.87zM565 1636.18c22.09 0 40.86-14.44 47.39-34.37h139.89c8.56 0 15.5-6.94 15.5-15.5v-139.89c19.93-6.54 34.37-25.3 34.37-47.39 0-27.5-22.37-49.87-49.87-49.87s-49.87 22.37-49.87 49.87c0 22.09 14.44 40.86 34.37 47.39v124.39H612.39c-6.54-19.93-25.3-34.37-47.39-34.37-27.5 0-49.87 22.37-49.87 49.87s22.37 49.87 49.87 49.87zm168.41-237.16c0-10.41 8.47-18.87 18.87-18.87 10.41 0 18.87 8.47 18.87 18.87 0 10.41-8.47 18.87-18.87 18.87-10.4.01-18.87-8.46-18.87-18.87zM565 1567.44c10.41 0 18.87 8.47 18.87 18.87 0 10.41-8.47 18.87-18.87 18.87-10.41 0-18.87-8.47-18.87-18.87 0-10.41 8.46-18.87 18.87-18.87z" class="st1"/><path d="M646.55 1530.01c27.5 0 49.87-22.37 49.87-49.87s-22.37-49.87-49.87-49.87-49.87 22.37-49.87 49.87 22.37 49.87 49.87 49.87zm0-68.74c10.41 0 18.87 8.47 18.87 18.87 0 10.41-8.47 18.87-18.87 18.87-10.41 0-18.87-8.47-18.87-18.87 0-10.41 8.46-18.87 18.87-18.87zM1249.34 1445.84v139.89c0 8.56 6.94 15.5 15.5 15.5h139.89c6.54 19.93 25.3 34.37 47.39 34.37 27.5 0 49.87-22.37 49.87-49.87s-22.37-49.87-49.87-49.87c-22.09 0-40.86 14.44-47.39 34.37h-124.39v-124.39c19.93-6.54 34.37-25.3 34.37-47.39 0-27.5-22.37-49.87-49.87-49.87-27.5 0-49.87 22.37-49.87 49.87 0 22.09 14.44 40.86 34.37 47.39zm202.79 121.02c10.41 0 18.87 8.47 18.87 18.87 0 10.41-8.47 18.87-18.87 18.87s-18.87-8.47-18.87-18.87 8.46-18.87 18.87-18.87zm-187.29-187.28c10.41 0 18.87 8.47 18.87 18.87 0 10.41-8.47 18.87-18.87 18.87-10.41 0-18.87-8.47-18.87-18.87 0-10.41 8.47-18.87 18.87-18.87z" class="st1"/><path d="M1370.58 1529.44c27.5 0 49.87-22.37 49.87-49.87 0-27.5-22.37-49.87-49.87-49.87s-49.87 22.37-49.87 49.87c-.01 27.49 22.37 49.87 49.87 49.87zm0-68.75c10.41 0 18.87 8.47 18.87 18.87 0 10.41-8.47 18.87-18.87 18.87-10.41 0-18.87-8.47-18.87-18.87-.01-10.4 8.46-18.87 18.87-18.87zM1452.13 2048.56c-22.09 0-40.86 14.44-47.39 34.37h-139.89c-8.56 0-15.5 6.94-15.5 15.5v139.89c-19.93 6.54-34.37 25.3-34.37 47.39 0 27.5 22.37 49.87 49.87 49.87 27.5 0 49.87-22.37 49.87-49.87 0-22.09-14.44-40.86-34.37-47.39v-124.39h124.39c6.54 19.93 25.3 34.37 47.39 34.37 27.5 0 49.87-22.37 49.87-49.87 0-27.5-22.37-49.87-49.87-49.87zm-168.42 237.15c0 10.41-8.47 18.87-18.87 18.87-10.41 0-18.87-8.47-18.87-18.87s8.47-18.87 18.87-18.87c10.41 0 18.87 8.47 18.87 18.87zm168.42-168.41c-10.41 0-18.87-8.47-18.87-18.87 0-10.41 8.47-18.87 18.87-18.87s18.87 8.47 18.87 18.87-8.47 18.87-18.87 18.87z" class="st1"/><path d="M1370.58 2154.73c-27.5 0-49.87 22.37-49.87 49.87s22.37 49.87 49.87 49.87 49.87-22.37 49.87-49.87-22.37-49.87-49.87-49.87zm0 68.74c-10.41 0-18.87-8.47-18.87-18.87s8.47-18.87 18.87-18.87c10.41 0 18.87 8.47 18.87 18.87s-8.47 18.87-18.87 18.87zM767.78 2238.9V2099c0-8.56-6.94-15.5-15.5-15.5H612.39c-6.54-19.93-25.3-34.37-47.39-34.37-27.5 0-49.87 22.37-49.87 49.87s22.37 49.87 49.87 49.87c22.09 0 40.86-14.44 47.39-34.37h124.39v124.39c-19.93 6.54-34.37 25.3-34.37 47.39 0 27.5 22.37 49.87 49.87 49.87s49.87-22.37 49.87-49.87c0-22.08-14.43-40.85-34.37-47.38zM565 2117.88c-10.41 0-18.87-8.47-18.87-18.87s8.47-18.87 18.87-18.87c10.41 0 18.87 8.47 18.87 18.87s-8.47 18.87-18.87 18.87zm187.28 187.28c-10.41 0-18.87-8.47-18.87-18.87 0-10.41 8.47-18.87 18.87-18.87 10.41 0 18.87 8.47 18.87 18.87 0 10.41-8.46 18.87-18.87 18.87z" class="st1"/><path d="M646.55 2155.3c-27.5 0-49.87 22.37-49.87 49.87s22.37 49.87 49.87 49.87 49.87-22.37 49.87-49.87-22.37-49.87-49.87-49.87zm0 68.75c-10.41 0-18.87-8.47-18.87-18.87s8.47-18.87 18.87-18.87c10.41 0 18.87 8.47 18.87 18.87s-8.47 18.87-18.87 18.87zM1070.06 1682.63H951.13c-4.09 0-8.02 1.62-10.92 4.5l-87.43 86.79a15.506 15.506 0 0 0-4.58 11v117.64c0 4.13 1.65 8.09 4.58 11l87.43 86.79c2.9 2.88 6.83 4.5 10.92 4.5h118.29c4.13 0 8.09-1.65 11-4.58l84.21-84.86c2.88-2.9 4.5-6.83 4.5-10.92v-121.5c0-4.07-1.6-7.98-4.46-10.88l-83.57-84.86a15.478 15.478 0 0 0-11.04-4.62zm68.07 215.47-75.17 75.74H957.52l-78.31-77.74v-104.74l78.31-77.74h106.05l74.56 75.71v108.77zM1787.91 1813.21h48.37c.53-3.57.99-8.04 1.39-13.4.4-5.36.59-11.97.59-19.83 0-11.91-1.85-22.09-5.55-30.55-3.71-8.45-8.79-15.36-15.27-20.72-6.48-5.36-14.14-9.29-23-11.79s-18.44-3.75-28.75-3.75c-10.58 0-20.62 1.31-30.13 3.93-9.52 2.62-17.84 6.79-24.98 12.5-7.14 5.72-12.82 13.16-17.05 22.33-4.23 9.17-6.34 20.31-6.34 33.4v138.26c0 12.86 2.04 23.82 6.15 32.87 4.1 9.05 9.71 16.43 16.85 22.15 7.14 5.72 15.4 9.82 24.78 12.33 9.38 2.5 19.49 3.75 30.33 3.75 10.31 0 19.89-1.25 28.75-3.75 8.85-2.5 16.59-6.49 23.2-11.97 6.6-5.48 11.76-12.44 15.46-20.9 3.7-8.45 5.55-18.76 5.55-30.9 0-8.09-.27-14.77-.79-20.01-.53-5.24-1.06-9.65-1.59-13.22h-48.37c.53 2.62.99 6.13 1.39 10.54.4 4.41.59 8.99.59 13.75 0 6.67-.46 12.15-1.39 16.43-.93 4.29-2.25 7.68-3.97 10.18-1.72 2.5-3.77 4.29-6.15 5.36-2.38 1.07-5.02 1.61-7.93 1.61-6.08 0-10.84-1.9-14.27-5.72-3.44-3.81-5.15-8.81-5.15-15.01v-155.05c0-6.19 1.72-11.08 5.15-14.65 3.43-3.57 8.06-5.36 13.88-5.36 7.14 0 12.22 2.44 15.27 7.32 3.04 4.88 4.56 13.64 4.56 26.26 0 5-.14 9.53-.4 13.58-.25 4.08-.65 7.41-1.18 10.03zM1956.73 1794.64c-9.05 0-16.57 2.09-22.55 6.25-5.99 4.17-11.25 8.52-15.77 13.04h-.68v-92.89h-50.53v268.31h50.87v-136.83c0-5.48 1.47-9.76 4.41-12.86 2.94-3.09 6.33-4.64 10.17-4.64 4.75 0 8.08 1.31 10 3.93s2.88 7.74 2.88 15.36v135.05h50.87v-142.91c0-17.15-3.51-30.07-10.51-38.76-7-8.71-16.73-13.05-29.16-13.05zM2073.54 1794.64c-20.39 0-36.25 5.3-47.58 15.9-11.34 10.6-17.01 26.97-17.01 49.12v72.52c0 20.72 5.95 36.15 17.86 46.27 11.91 10.13 27.71 15.18 47.41 15.18 19.93 0 34.36-5 43.29-15s13.4-23.1 13.4-39.3c0-4.76-.12-8.81-.34-12.15-.23-3.33-.34-6.19-.34-8.57h-39.85c0 1.43.05 3.46.17 6.07.11 2.62.17 5.72.17 9.29 0 7.39-1.37 12.57-4.12 15.54-2.75 2.98-6.42 4.47-10.99 4.47-4.58 0-8.19-1.37-10.82-4.11-2.64-2.73-3.95-7.32-3.95-13.75v-34.3h71.81c.23-4.76.46-10.77.69-18.04.23-7.26.34-13.99.34-20.19 0-23.81-5.27-41.26-15.8-52.34-10.56-11.08-25.33-16.61-44.34-16.61zm15.29 67.16c-.12 3.34-.17 5.84-.17 7.5h-27.83v-18.94c0-11.43 4.58-17.15 13.74-17.15 4.81 0 8.42 1.49 10.82 4.47 2.41 2.98 3.61 8.04 3.61 15.18 0 2.63-.06 5.61-.17 8.94zM2242.82 1873.95h43.05c.24-2.14.49-5.06.74-8.75.24-3.69.37-7.92.37-12.68 0-19.29-5.58-33.76-16.74-43.41-11.17-9.65-26.31-14.47-45.45-14.47-20.61 0-37.17 5.06-49.68 15.18-12.51 10.13-18.77 26.02-18.77 47.69v72.17c0 20.01 5.52 35.67 16.56 46.98 11.04 11.32 28.33 16.97 51.89 16.97 8.34 0 16.31-1.02 23.92-3.04 7.6-2.02 14.22-5.36 19.87-10 5.64-4.64 10.12-10.66 13.43-18.04 3.31-7.38 4.97-16.43 4.97-27.15 0-4.76-.13-9.05-.37-12.86-.25-3.81-.49-6.67-.74-8.57h-43.05c.24 1.67.49 4.11.74 7.32.24 3.22.37 6.25.37 9.11 0 15.25-5.52 22.86-16.56 22.86-4.91 0-8.71-1.48-11.41-4.47-2.7-2.98-4.05-8.04-4.05-15.18v-78.6c0-7.38 1.35-12.56 4.05-15.54 2.7-2.98 6.62-4.47 11.77-4.47 4.66 0 8.52 1.61 11.59 4.82 3.06 3.22 4.6 8.75 4.6 16.61 0 4.05-.13 7.56-.37 10.54-.24 2.99-.48 5.31-.73 6.98zM2463.62 1799.64h-59.89l-29.94 74.67h-.79v-153.27h-59.1v268.3h59.1v-69.66l12.22-16.44 17.73 86.1h61.46l-35.07-125.4zM2480.81 1721.04h53.59v268.31h-53.59zM2652.57 1915.7c4.29-6.18 9.11-12.65 14.47-19.42 5.36-6.76 10.77-13.52 16.25-20.29 9.05-11.2 16.73-24.54 23.04-40.06 6.31-15.51 9.47-32.01 9.47-49.5 0-22.62-5.42-39.65-16.26-51.08-10.84-11.42-27.69-17.14-50.55-17.14-12.39 0-22.63 1.75-30.73 5.25-8.1 3.5-14.59 8.22-19.47 14.17-4.88 5.95-8.28 13-10.18 21.17-1.91 8.17-2.86 16.91-2.86 26.24 0 4.2.18 8.75.54 13.64.36 4.9.77 8.28 1.25 10.15h43.59c-.48-1.63-.96-4.72-1.43-9.27-.48-4.55-.71-9.04-.71-13.47 0-9.33 1.31-16.03 3.93-20.12 2.62-4.08 6.91-6.12 12.86-6.12 3.09 0 5.66.47 7.68 1.4 2.02.93 3.69 2.62 5 5.07s2.26 5.89 2.86 10.32c.59 4.43.89 10.15.89 17.14 0 11.2-2.27 21.87-6.79 32.01a185.421 185.421 0 0 1-16.08 28.86c-6.2 9.33-12.39 18.19-18.58 26.59-6.2 8.4-11.67 16.44-16.43 24.14-8.57 13.76-14.65 26.47-18.22 38.13-3.57 11.67-5.36 23.91-5.36 36.73v9.1h135.05v-41.98h-77.88c0-3.96 1.37-8.69 4.11-14.17 2.73-5.47 6.25-11.3 10.54-17.49zM2922.14 1937.9h49.66v51.45h-49.66zM3092.05 1873.95h41.8c.23-2.14.47-5.06.71-8.75.23-3.69.36-7.92.36-12.68 0-19.29-5.42-33.76-16.26-43.41-10.84-9.65-25.54-14.47-44.12-14.47-20.01 0-36.08 5.06-48.23 15.18-12.15 10.13-18.22 26.02-18.22 47.69v72.17c0 20.01 5.36 35.67 16.08 46.98 10.72 11.32 27.51 16.97 50.38 16.97 8.09 0 15.84-1.02 23.22-3.04 7.38-2.02 13.81-5.36 19.29-10 5.48-4.64 9.82-10.66 13.04-18.04 3.21-7.38 4.82-16.43 4.82-27.15 0-4.76-.12-9.05-.36-12.86-.24-3.81-.48-6.67-.71-8.57h-41.8c.23 1.67.47 4.11.71 7.32.24 3.22.36 6.25.36 9.11 0 15.25-5.36 22.86-16.08 22.86-4.77 0-8.46-1.48-11.08-4.47-2.62-2.98-3.93-8.04-3.93-15.18v-78.6c0-7.38 1.31-12.56 3.93-15.54 2.62-2.98 6.43-4.47 11.43-4.47 4.52 0 8.27 1.61 11.25 4.82 2.98 3.22 4.47 8.75 4.47 16.61 0 4.05-.12 7.56-.36 10.54-.23 2.99-.47 5.31-.7 6.98zM3269.43 1809.46c-6.31-5.12-13.58-8.87-21.79-11.25-8.22-2.38-16.97-3.57-26.26-3.57-9.53 0-18.46 1.37-26.79 4.11-8.34 2.74-15.54 6.79-21.61 12.15s-10.84 12.03-14.29 20.01c-3.46 7.98-5.18 17.09-5.18 27.33v73.6c0 10.48 1.84 19.59 5.54 27.33 3.69 7.74 8.63 14.11 14.83 19.11 6.19 5 13.4 8.75 21.62 11.25s16.85 3.75 25.9 3.75c20.72 0 37.27-5.12 49.66-15.36 12.38-10.24 18.58-25.6 18.58-46.09v-73.6c0-11.19-1.79-20.84-5.36-28.94-3.6-8.09-8.54-14.7-14.85-19.83zm-33.41 125.94c0 11.67-4.88 17.51-14.65 17.51-9.29 0-13.93-5.83-13.93-17.51v-81.1c0-6.67 1.01-11.55 3.04-14.65 2.02-3.09 5.65-4.64 10.9-4.64 4.76 0 8.4 1.43 10.9 4.29 2.5 2.86 3.75 7.74 3.75 14.65v81.45zM3520.76 1808.75c-6.43-9.65-17.51-14.47-33.23-14.47-10.48 0-19.18 2.21-26.08 6.61-6.91 4.41-12.86 9.59-17.86 15.54-3.1-6.91-7.8-12.33-14.11-16.26-6.31-3.93-14-5.9-23.04-5.9-5.72 0-10.78.84-15.18 2.5-4.41 1.67-8.4 3.63-11.97 5.9-3.57 2.27-6.67 4.77-9.29 7.5-2.62 2.74-4.88 5.18-6.79 7.32h-.71c-.24-2.38-.6-5.41-1.07-9.11-.48-3.69-.95-6.61-1.43-8.75h-50.73c.95 2.62 1.66 5.9 2.14 9.83.47 3.93.71 8.99.71 15.18v164.7h53.59v-137.9c0-4.29 1.37-8.16 4.11-11.61 2.74-3.45 6.73-5.18 11.97-5.18 4.76 0 8.09 1.37 10 4.11 1.9 2.74 2.86 6.49 2.86 11.25v139.33h53.59v-137.9c0-4.76 1.55-8.75 4.64-11.97 3.09-3.22 6.91-4.82 11.43-4.82 8.57 0 12.86 5.12 12.86 15.36v139.33h53.23v-140.76c.01-16.91-3.21-30.19-9.64-39.83zM2848.98 1720.84h-91.96v268.5h56.8v-116.97c2.26.24 4.55.37 6.87.37h28.29c35.16 0 63.67-28.51 63.67-63.67v-24.57c0-35.15-28.5-63.66-63.67-63.66zm12.29 89.34c0 12.91-10.47 23.38-23.38 23.38h-24.07v-74.38h24.07c12.91 0 23.38 10.47 23.38 23.38v27.62z" class="st1"/><path d="M1692.69 2100.06h-51.8v101.02h29.39v-31.81h22.41c10.96 0 19.52-3.31 25.68-9.92 6.16-6.61 9.24-14.82 9.24-24.61 0-9.89-3.08-18.15-9.24-24.76-6.16-6.61-14.72-9.92-25.68-9.92zm2.62 40.51c-1.65 1.36-3.78 2.04-6.4 2.04h-18.63v-15.9h18.63c2.62 0 4.75.68 6.4 2.04 1.65 1.36 2.47 3.36 2.47 5.98 0 2.54-.82 4.48-2.47 5.84zM1773.9 2116.33c-12.49 0-22.92 4.02-31.28 12.06-8.37 8.04-12.55 18.4-12.55 31.06 0 12.67 4.18 23.02 12.55 31.06 8.37 8.04 18.79 12.06 31.28 12.06s22.92-4.02 31.28-12.06c8.37-8.04 12.55-18.39 12.55-31.06 0-12.67-4.18-23.02-12.55-31.06-8.37-8.04-18.79-12.06-31.28-12.06zm13.87 58c-3.56 4-8.19 6-13.87 6-5.69 0-10.31-2-13.87-6-3.56-4-5.34-8.96-5.34-14.88s1.78-10.88 5.34-14.88c3.56-4 8.19-6 13.87-6s10.31 2 13.87 6c3.56 4 5.34 8.96 5.34 14.88 0 5.93-1.78 10.88-5.34 14.88zM1894.83 2168.71l-12.13-51h-18.25l-12.13 51-10.33-51h-27.14l22.94 83.37h25.46l10.32-47.25 10.33 47.25h25.46l22.94-83.37h-27.26zM1936.14 2201.08h60.77v-22h-36.51v-9.12h35.67v-22h-35.67v-8.25h36.51v-22h-60.77zM2073.82 2162.33c2.84-4.17 4.26-9.5 4.26-16 0-8.17-2.54-14.98-7.62-20.44-5.09-5.46-12.15-8.19-21.2-8.19h-42.75v83.38h24.26v-26.25h8.77l11.05 26.25h27.62l-14.53-29.5c3.92-2 7.3-5.08 10.14-9.25zm-22.63-11.19c-1.52 1.12-3.4 1.69-5.64 1.69h-14.77v-13.12h14.77c2.24 0 4.12.56 5.64 1.69s2.28 2.73 2.28 4.81c0 2.17-.76 3.81-2.28 4.93zM2086.73 2201.08h60.77v-22h-36.51v-9.12h35.67v-22h-35.67v-8.25h36.51v-22h-60.77zM2224.6 2128.77c-8.17-7.38-18.73-11.06-31.7-11.06h-35.79v83.38h35.91c12.89 0 23.42-3.71 31.58-11.12 8.17-7.42 12.25-17.62 12.25-30.62s-4.09-23.21-12.25-30.58zm-17.66 44.56c-3.52 3.83-8.21 5.75-14.05 5.75h-11.53v-39.38h11.65c6.25 0 11.01 1.79 14.29 5.38 3.28 3.58 4.92 8.33 4.92 14.25.01 5.5-1.76 10.17-5.28 14zM2345.64 2150.48c4.85-1.11 8.83-3.71 11.93-7.8 3.1-4.09 4.66-9.21 4.66-15.37 0-6.66-2.47-12.62-7.42-17.87-4.95-5.25-12.08-7.88-21.39-7.88h-58.93v101.02h60.97c9.21 0 16.3-2.67 21.25-8.03 4.95-5.35 7.42-11.81 7.42-19.39 0-6.46-1.75-11.99-5.24-16.58-3.5-4.59-7.91-7.29-13.25-8.1zm-41.76-23.48h22.7c1.55 0 2.91.53 4.07 1.59 1.16 1.06 1.75 2.45 1.75 4.17 0 1.72-.58 3.16-1.75 4.32-1.16 1.16-2.52 1.74-4.07 1.74h-22.7V2127zm28.6 48.39c-1.21 1.16-2.89 1.74-5.02 1.74h-23.57v-12.87h23.57c2.04 0 3.69.63 4.95 1.89 1.26 1.26 1.89 2.8 1.89 4.62-.01 1.92-.61 3.46-1.82 4.62zM2408.22 2147.33l-15.5-28.12h-28.37l31.25 50.25v33.12h25.25v-33.12l31-50.25h-28.38zM2597.17 2142.57c-3.81-2.02-7.97-3.76-12.48-5.23-4.51-1.46-8.67-2.47-12.48-3.03-3.81-.55-6.99-1.34-9.55-2.35-2.56-1.01-3.83-2.22-3.83-3.64 0-3.03 2.37-4.54 7.11-4.54 10.13 0 19.24 3.33 27.32 10l15.05-21.66c-10.59-9.39-23.75-14.09-39.45-14.09-12.08 0-21.54 3.28-28.37 9.84-6.83 6.57-10.25 14.44-10.25 23.63 0 7.37 1.79 13.48 5.37 18.33 3.58 4.85 7.9 8.23 12.96 10.15a95.476 95.476 0 0 0 15.19 4.39c5.06 1.01 9.39 1.97 12.96 2.88 3.58.91 5.37 2.22 5.37 3.94 0 3.64-3.44 5.45-10.32 5.45-11.62 0-21.61-4.34-29.97-13.03l-14.64 22.72c10.96 10.7 25.37 16.05 43.21 16.05 12.55 0 22.37-3.08 29.48-9.24 7.11-6.16 10.66-14.79 10.66-25.9 0-5.86-1.28-10.93-3.83-15.22-2.52-4.27-5.7-7.43-9.51-9.45zM2610.55 2126.21h24.95v74.37h28.16v-74.37h24.81v-26.65h-77.92zM2740.19 2097.89c-14.5 0-26.6 4.87-36.31 14.62s-14.57 22.29-14.57 37.64c0 15.35 4.86 27.89 14.57 37.64s21.81 14.62 36.31 14.62 26.6-4.87 36.31-14.62c9.71-9.74 14.57-22.29 14.57-37.64 0-15.35-4.86-27.89-14.57-37.64s-21.82-14.62-36.31-14.62zm16.1 70.28c-4.14 4.85-9.5 7.27-16.1 7.27-6.6 0-11.97-2.42-16.1-7.27-4.14-4.85-6.2-10.85-6.2-18.02s2.07-13.18 6.2-18.02c4.13-4.85 9.5-7.27 16.1-7.27 6.6 0 11.96 2.42 16.1 7.27 4.13 4.85 6.2 10.86 6.2 18.02 0 7.17-2.07 13.17-6.2 18.02zM2877.84 2153.63c3.3-5.05 4.95-11.51 4.95-19.39 0-9.89-2.95-18.15-8.85-24.76-5.9-6.61-14.1-9.92-24.6-9.92h-49.62v101.02h28.16v-31.81h10.18l12.82 31.81h32.06l-16.87-35.75c4.54-2.42 8.47-6.15 11.77-11.2zm-26.28-13.56c-1.77 1.36-3.95 2.04-6.55 2.04h-17.15v-15.9h17.15c2.6 0 4.79.68 6.55 2.04 1.76 1.36 2.65 3.31 2.65 5.83 0 2.64-.88 4.63-2.65 5.99zM2948.02 2148.02l-16.31-48.46h-38.89v101.02h28.16v-60.73l20.77 60.73h12.54l20.77-60.73v60.73h28.16v-101.02h-38.89zM3072.78 2099.56l-17.01 34.08-17.28-34.08h-31.65l34.85 60.88v40.14h28.16v-40.14l34.57-60.88zM3148.61 2124.85c4.09 0 7.81 1.44 11.15 4.32s5.62 6.34 6.83 10.38l24.25-12.27c-3.35-8.28-8.43-15.25-15.26-20.9-6.83-5.65-15.82-8.48-26.97-8.48-14.78 0-27 4.85-36.66 14.54-9.67 9.69-14.5 22.26-14.5 37.71 0 15.35 4.86 27.89 14.57 37.64s21.91 14.62 36.59 14.62c5.76 0 11.08-.88 15.96-2.65 4.88-1.77 8.99-4.17 12.34-7.19s6.13-6.13 8.36-9.31c2.23-3.18 4.09-6.64 5.58-10.38l-24.25-12.12c-1.21 4.04-3.48 7.5-6.83 10.38s-7.06 4.32-11.15 4.32c-6.69 0-12.13-2.42-16.31-7.27-4.18-4.85-6.27-10.85-6.27-18.02s2.09-13.18 6.27-18.02 9.61-7.3 16.3-7.3zM3226.39 2099.56h-28.16v101.02h63.42v-26.66h-35.26zM3314.62 2097.89c-14.5 0-26.6 4.87-36.31 14.62s-14.57 22.29-14.57 37.64c0 15.35 4.86 27.89 14.57 37.64s21.81 14.62 36.31 14.62 26.6-4.87 36.31-14.62c9.71-9.74 14.57-22.29 14.57-37.64 0-15.35-4.86-27.89-14.57-37.64s-21.81-14.62-36.31-14.62zm16.1 70.28c-4.14 4.85-9.5 7.27-16.1 7.27-6.6 0-11.97-2.42-16.1-7.27-4.14-4.85-6.2-10.85-6.2-18.02s2.07-13.18 6.2-18.02c4.13-4.85 9.5-7.27 16.1-7.27 6.6 0 11.96 2.42 16.1 7.27 4.13 4.85 6.2 10.86 6.2 18.02.01 7.17-2.06 13.17-6.2 18.02zM3437.43 2158.02c0 5.05-1.51 9.22-4.53 12.5-3.02 3.28-7.27 4.92-12.75 4.92-5.58 0-9.88-1.64-12.89-4.92-3.02-3.28-4.53-7.44-4.53-12.5v-58.46h-28.58v59.52c0 13.03 3.88 23.5 11.64 31.43 7.76 7.93 19.21 11.89 34.36 11.89 15.15 0 26.58-3.96 34.29-11.89 7.71-7.93 11.57-18.45 11.57-31.58v-59.37h-28.58v58.46zM3558.01 2112.96c-9.48-8.94-21.75-13.4-36.8-13.4h-41.54v101.02h41.68c14.96 0 27.18-4.49 36.66-13.48 9.48-8.99 14.22-21.36 14.22-37.11s-4.75-28.09-14.22-37.03zm-20.5 54c-4.09 4.65-9.53 6.97-16.31 6.97h-13.38v-47.71h13.52c7.25 0 12.78 2.17 16.59 6.51 3.81 4.34 5.71 10.1 5.71 17.27.01 6.66-2.04 12.31-6.13 16.96zM2477.27 2098.04h17.68v104.36h-17.68z"/></svg>