<?xml version="1.0" encoding="utf-8"?>
<!-- Generator: Adobe Illustrator 28.1.0, SVG Export Plug-In . SVG Version: 6.00 Build 0)  -->
<svg version="1.1" id="Layer_1" xmlns="http://www.w3.org/2000/svg" xmlns:xlink="http://www.w3.org/1999/xlink" x="0px" y="0px"
	 viewBox="0 0 3381.2 1325" style="enable-background:new 0 0 3381.2 1325;" xml:space="preserve">
<style type="text/css">
	.st0{fill:url(#SVGID_1_);}
	.st1{fill:#FFFFFF;}
</style>
<linearGradient id="SVGID_1_" gradientUnits="userSpaceOnUse" x1="1700.2051" y1="1476.9492" x2="1700.2051" y2="543.5153" gradientTransform="matrix(1 0 0 -1 0 1632.2649)">
	<stop  offset="0" style="stop-color:#0080BF"/>
	<stop  offset="1" style="stop-color:#074B92"/>
</linearGradient>
<path class="st0" d="M3223.6,486.3H1366c-13.3,0-25.6,4.7-35.2,12.5C1259.9,221.1,1008,15.7,708.2,15.7
	c-354.9,0-642.6,287.7-642.6,642.6s287.7,642.6,642.6,642.6c292.6,0,539.5-195.6,617.2-463.2c10,10.4,24,16.8,39.5,16.8h1858.8
	c61.4,0,111.2-49.8,111.2-111.2V597.5C3334.9,536.1,3285.1,486.3,3223.6,486.3L3223.6,486.3z"/>
<path class="st1" d="M1220.9,609.8c-22.1,0-40.9,14.4-47.4,34.4H980.3v-90.3c0-4.1-1.7-8.1-4.6-11L824,392.5
	c-2.9-2.9-6.8-4.5-10.9-4.5h-89V194.9c19.9-6.5,34.4-25.3,34.4-47.4c0-27.5-22.4-49.9-49.9-49.9s-49.9,22.4-49.9,49.9
	c0,22.1,14.4,40.9,34.4,47.4V388h-91.5c-4.1,0-8.1,1.7-11,4.6L441.5,543c-2.9,2.9-4.5,6.8-4.5,10.9v90.3H243.7
	c-6.5-19.9-25.3-34.4-47.4-34.4c-27.5,0-49.9,22.4-49.9,49.9s22.4,49.9,49.9,49.9c22.1,0,40.9-14.4,47.4-34.4H437v89.6
	c0,4.1,1.6,8,4.5,10.9l149.8,150.9c2.9,2.9,6.9,4.6,11,4.6h90.9v194.3c-19.9,6.5-34.4,25.3-34.4,47.4c0,27.5,22.4,49.9,49.9,49.9
	c27.5,0,49.9-22.4,49.9-49.9c0-22.1-14.4-40.9-34.4-47.4V931.1h92.2c4.1,0,8.1-1.7,11-4.6l148.5-150.2c2.9-2.9,4.5-6.8,4.5-10.9
	v-90.2h193.1c6.5,19.9,25.3,34.4,47.4,34.4c27.5,0,49.9-22.4,49.9-49.9C1270.7,632.2,1248.4,609.8,1220.9,609.8L1220.9,609.8z
	 M196.3,678.6c-10.4,0-18.9-8.5-18.9-18.9c0-10.4,8.5-18.9,18.9-18.9c10.4,0,18.9,8.5,18.9,18.9
	C215.2,670.1,206.7,678.6,196.3,678.6z M689.8,147.5c0-10.4,8.5-18.9,18.9-18.9s18.9,8.5,18.9,18.9s-8.5,18.9-18.9,18.9
	S689.8,157.9,689.8,147.5z M727.5,1172.8c0,10.4-8.5,18.9-18.9,18.9s-18.9-8.5-18.9-18.9c0-10.4,8.5-18.9,18.9-18.9
	S727.5,1162.4,727.5,1172.8z M949.3,759L809.9,900.1H608.7L468,758.4V560.3L608.1,419h198.7l142.6,141.3L949.3,759L949.3,759z
	 M1220.9,678.6c-10.4,0-18.9-8.5-18.9-18.9c0-10.4,8.5-18.9,18.9-18.9c10.4,0,18.9,8.5,18.9,18.9S1231.3,678.6,1220.9,678.6z"/>
<path class="st1" d="M526.6,312.3c0,27.5,22.4,49.9,49.9,49.9s49.9-22.4,49.9-49.9c0-22.3-14.7-41.2-34.9-47.6v-52.2
	c20.2-6.4,34.9-25.3,34.9-47.6c0-27.5-22.4-49.9-49.9-49.9s-49.9,22.4-49.9,49.9c0,22.3,14.7,41.2,34.9,47.6v52.2
	C541.2,271.1,526.6,290,526.6,312.3z M557.6,165c0-10.4,8.5-18.9,18.9-18.9c10.4,0,18.9,8.5,18.9,18.9s-8.5,18.9-18.9,18.9
	S557.6,175.4,557.6,165z M576.4,293.4c10.4,0,18.9,8.5,18.9,18.9s-8.5,18.9-18.9,18.9c-10.4,0-18.9-8.5-18.9-18.9
	S566,293.4,576.4,293.4z M792.3,312.3c0,27.5,22.4,49.9,49.9,49.9s49.9-22.4,49.9-49.9c0-22.3-14.7-41.2-34.9-47.6v-52.2
	c20.2-6.4,34.9-25.3,34.9-47.6c0-27.5-22.4-49.9-49.9-49.9s-49.9,22.4-49.9,49.9c0,22.3,14.7,41.2,34.9,47.6v52.2
	C807,271.1,792.3,290,792.3,312.3z M823.3,165c0-10.4,8.5-18.9,18.9-18.9c10.4,0,18.9,8.5,18.9,18.9s-8.5,18.9-18.9,18.9
	C831.8,183.8,823.3,175.4,823.3,165z M842.2,293.4c10.4,0,18.9,8.5,18.9,18.9s-8.5,18.9-18.9,18.9c-10.4,0-18.9-8.5-18.9-18.9
	S831.8,293.4,842.2,293.4z M626.3,1007.5c0-27.5-22.4-49.9-49.9-49.9s-49.9,22.4-49.9,49.9c0,22.3,14.7,41.2,34.9,47.6v52.2
	c-20.2,6.4-34.9,25.3-34.9,47.6c0,27.5,22.4,49.9,49.9,49.9s49.9-22.4,49.9-49.9c0-22.3-14.7-41.2-34.9-47.6v-52.2
	C611.6,1048.7,626.3,1029.8,626.3,1007.5z M595.3,1154.9c0,10.4-8.5,18.9-18.9,18.9c-10.4,0-18.9-8.5-18.9-18.9s8.5-18.9,18.9-18.9
	C586.8,1136,595.3,1144.4,595.3,1154.9z M576.4,1026.4c-10.4,0-18.9-8.5-18.9-18.9c0-10.4,8.5-18.9,18.9-18.9
	c10.4,0,18.9,8.5,18.9,18.9C595.3,1018,586.8,1026.4,576.4,1026.4z M892,1007.5c0-27.5-22.4-49.9-49.9-49.9s-49.9,22.4-49.9,49.9
	c0,22.3,14.7,41.2,34.9,47.6v52.2c-20.2,6.4-34.9,25.3-34.9,47.6c0,27.5,22.4,49.9,49.9,49.9s49.9-22.4,49.9-49.9
	c0-22.3-14.7-41.2-34.9-47.6v-52.2C877.3,1048.7,892,1029.8,892,1007.5z M861,1154.9c0,10.4-8.5,18.9-18.9,18.9
	c-10.4,0-18.9-8.5-18.9-18.9s8.5-18.9,18.9-18.9C852.6,1136,861,1144.4,861,1154.9z M842.2,1026.4c-10.4,0-18.9-8.5-18.9-18.9
	c0-10.4,8.5-18.9,18.9-18.9c10.4,0,18.9,8.5,18.9,18.9C861,1018,852.6,1026.4,842.2,1026.4z M213.9,577.2
	c22.1,0,40.9-14.4,47.4-34.4H318c6.5,19.9,25.3,34.4,47.4,34.4c27.5,0,49.9-22.4,49.9-49.9s-22.4-49.9-49.9-49.9
	c-22.1,0-40.9,14.4-47.4,34.4h-56.8c-6.5-19.9-25.3-34.4-47.4-34.4c-27.5,0-49.9,22.4-49.9,49.9S186.4,577.2,213.9,577.2z
	 M365.5,508.4c10.4,0,18.9,8.5,18.9,18.9c0,10.4-8.5,18.9-18.9,18.9c-10.4,0-18.9-8.5-18.9-18.9S355,508.4,365.5,508.4z
	 M213.9,508.4c10.4,0,18.9,8.5,18.9,18.9c0,10.4-8.5,18.9-18.9,18.9c-10.4,0-18.9-8.5-18.9-18.9S203.5,508.4,213.9,508.4z
	 M261.3,807.3H318c6.5,19.9,25.3,34.4,47.4,34.4c27.5,0,49.9-22.4,49.9-49.9S392.9,742,365.4,742c-22.1,0-40.9,14.4-47.4,34.4h-56.8
	c-6.5-19.9-25.3-34.4-47.4-34.4c-27.5,0-49.9,22.4-49.9,49.9s22.4,49.9,49.9,49.9C236,841.7,254.7,827.3,261.3,807.3z M365.5,773
	c10.4,0,18.9,8.5,18.9,18.9s-8.5,18.9-18.9,18.9c-10.4,0-18.9-8.5-18.9-18.9S355,773,365.5,773z M213.9,810.7
	c-10.4,0-18.9-8.5-18.9-18.9s8.5-18.9,18.9-18.9c10.4,0,18.9,8.5,18.9,18.9S224.3,810.7,213.9,810.7z M1157,511.9h-56.8
	c-6.5-19.9-25.3-34.4-47.4-34.4c-27.5,0-49.9,22.4-49.9,49.9s22.4,49.9,49.9,49.9c22.1,0,40.9-14.4,47.4-34.4h56.8
	c6.5,19.9,25.3,34.4,47.4,34.4c27.5,0,49.9-22.4,49.9-49.9s-22.4-49.9-49.9-49.9C1182.3,477.6,1163.5,492,1157,511.9z M1052.8,546.3
	c-10.4,0-18.9-8.5-18.9-18.9c0-10.4,8.5-18.9,18.9-18.9c10.4,0,18.9,8.5,18.9,18.9C1071.7,537.8,1063.2,546.3,1052.8,546.3z
	 M1204.4,508.6c10.4,0,18.9,8.5,18.9,18.9c0,10.4-8.5,18.9-18.9,18.9c-10.4,0-18.9-8.5-18.9-18.9
	C1185.5,517,1194,508.6,1204.4,508.6z M1204.4,742.1c-22.1,0-40.9,14.4-47.4,34.4h-56.8c-6.5-19.9-25.3-34.4-47.4-34.4
	c-27.5,0-49.9,22.4-49.9,49.9s22.4,49.9,49.9,49.9c22.1,0,40.9-14.4,47.4-34.4h56.8c6.5,19.9,25.3,34.4,47.4,34.4
	c27.5,0,49.9-22.4,49.9-49.9C1254.3,764.5,1231.9,742.1,1204.4,742.1z M1052.8,810.8c-10.4,0-18.9-8.5-18.9-18.9s8.5-18.9,18.9-18.9
	c10.4,0,18.9,8.5,18.9,18.9S1063.2,810.8,1052.8,810.8z M1204.4,810.8c-10.4,0-18.9-8.5-18.9-18.9s8.5-18.9,18.9-18.9
	c10.4,0,18.9,8.5,18.9,18.9S1214.8,810.8,1204.4,810.8z M265,453.4c22.1,0,40.9-14.4,47.4-34.4h139.9c8.6,0,15.5-6.9,15.5-15.5
	V263.6c19.9-6.5,34.4-25.3,34.4-47.4c0-27.5-22.4-49.9-49.9-49.9s-49.9,22.4-49.9,49.9c0,22.1,14.4,40.9,34.4,47.4V388H312.4
	c-6.5-19.9-25.3-34.4-47.4-34.4c-27.5,0-49.9,22.4-49.9,49.9S237.5,453.4,265,453.4z M433.4,216.2c0-10.4,8.5-18.9,18.9-18.9
	c10.4,0,18.9,8.5,18.9,18.9c0,10.4-8.5,18.9-18.9,18.9C441.9,235.1,433.4,226.6,433.4,216.2z M265,384.6c10.4,0,18.9,8.5,18.9,18.9
	c0,10.4-8.5,18.9-18.9,18.9c-10.4,0-18.9-8.5-18.9-18.9C246.1,393.1,254.6,384.6,265,384.6z"/>
<path class="st1" d="M346.5,347.2c27.5,0,49.9-22.4,49.9-49.9s-22.4-49.9-49.9-49.9s-49.9,22.4-49.9,49.9S319,347.2,346.5,347.2z
	 M346.5,278.5c10.4,0,18.9,8.5,18.9,18.9c0,10.4-8.5,18.9-18.9,18.9c-10.4,0-18.9-8.5-18.9-18.9
	C327.7,286.9,336.1,278.5,346.5,278.5z M949.3,263v139.9c0,8.6,6.9,15.5,15.5,15.5h139.9c6.5,19.9,25.3,34.4,47.4,34.4
	c27.5,0,49.9-22.4,49.9-49.9s-22.4-49.9-49.9-49.9c-22.1,0-40.9,14.4-47.4,34.4H980.3V263c19.9-6.5,34.4-25.3,34.4-47.4
	c0-27.5-22.4-49.9-49.9-49.9S915,188.1,915,215.6C915,237.7,929.4,256.5,949.3,263z M1152.1,384c10.4,0,18.9,8.5,18.9,18.9
	c0,10.4-8.5,18.9-18.9,18.9s-18.9-8.5-18.9-18.9S1141.7,384,1152.1,384z M964.8,196.8c10.4,0,18.9,8.5,18.9,18.9
	c0,10.4-8.5,18.9-18.9,18.9c-10.4,0-18.9-8.5-18.9-18.9C946,205.2,954.4,196.8,964.8,196.8z"/>
<path class="st1" d="M1070.6,346.6c27.5,0,49.9-22.4,49.9-49.9s-22.4-49.9-49.9-49.9s-49.9,22.4-49.9,49.9
	C1020.7,324.2,1043.1,346.6,1070.6,346.6z M1070.6,277.9c10.4,0,18.9,8.5,18.9,18.9c0,10.4-8.5,18.9-18.9,18.9
	c-10.4,0-18.9-8.5-18.9-18.9C1051.7,286.3,1060.2,277.9,1070.6,277.9z M1152.1,865.7c-22.1,0-40.9,14.4-47.4,34.4H964.8
	c-8.6,0-15.5,6.9-15.5,15.5v139.9c-19.9,6.5-34.4,25.3-34.4,47.4c0,27.5,22.4,49.9,49.9,49.9s49.9-22.4,49.9-49.9
	c0-22.1-14.4-40.9-34.4-47.4V931.1h124.4c6.5,19.9,25.3,34.4,47.4,34.4c27.5,0,49.9-22.4,49.9-49.9S1179.6,865.7,1152.1,865.7z
	 M983.7,1102.9c0,10.4-8.5,18.9-18.9,18.9c-10.4,0-18.9-8.5-18.9-18.9s8.5-18.9,18.9-18.9C975.2,1084,983.7,1092.5,983.7,1102.9z
	 M1152.1,934.5c-10.4,0-18.9-8.5-18.9-18.9c0-10.4,8.5-18.9,18.9-18.9s18.9,8.5,18.9,18.9S1162.5,934.5,1152.1,934.5z"/>
<path class="st1" d="M1070.6,971.9c-27.5,0-49.9,22.4-49.9,49.9s22.4,49.9,49.9,49.9s49.9-22.4,49.9-49.9S1098.1,971.9,1070.6,971.9
	z M1070.6,1040.7c-10.4,0-18.9-8.5-18.9-18.9s8.5-18.9,18.9-18.9c10.4,0,18.9,8.5,18.9,18.9S1081,1040.7,1070.6,1040.7z
	 M467.8,1056.1V916.2c0-8.6-6.9-15.5-15.5-15.5H312.4c-6.5-19.9-25.3-34.4-47.4-34.4c-27.5,0-49.9,22.4-49.9,49.9
	s22.4,49.9,49.9,49.9c22.1,0,40.9-14.4,47.4-34.4h124.4v124.4c-19.9,6.5-34.4,25.3-34.4,47.4c0,27.5,22.4,49.9,49.9,49.9
	s49.9-22.4,49.9-49.9C502.2,1081.4,487.7,1062.6,467.8,1056.1z M265,935.1c-10.4,0-18.9-8.5-18.9-18.9s8.5-18.9,18.9-18.9
	c10.4,0,18.9,8.5,18.9,18.9S275.4,935.1,265,935.1z M452.3,1122.3c-10.4,0-18.9-8.5-18.9-18.9c0-10.4,8.5-18.9,18.9-18.9
	c10.4,0,18.9,8.5,18.9,18.9C471.2,1113.9,462.7,1122.3,452.3,1122.3z"/>
<path class="st1" d="M346.5,972.5c-27.5,0-49.9,22.4-49.9,49.9s22.4,49.9,49.9,49.9s49.9-22.4,49.9-49.9S374,972.5,346.5,972.5z
	 M346.5,1041.2c-10.4,0-18.9-8.5-18.9-18.9s8.5-18.9,18.9-18.9c10.4,0,18.9,8.5,18.9,18.9S357,1041.2,346.5,1041.2z M770.1,499.8
	H651.1c-4.1,0-8,1.6-10.9,4.5l-87.4,86.8c-2.9,2.9-4.6,6.9-4.6,11v117.6c0,4.1,1.7,8.1,4.6,11l87.4,86.8c2.9,2.9,6.8,4.5,10.9,4.5
	h118.3c4.1,0,8.1-1.7,11-4.6l84.2-84.9c2.9-2.9,4.5-6.8,4.5-10.9V600.2c0-4.1-1.6-8-4.5-10.9l-83.6-84.9
	C778.2,501.5,774.2,499.8,770.1,499.8L770.1,499.8z M838.1,715.3L763,791H657.5l-78.3-77.7V608.5l78.3-77.7h106.1l74.6,75.7
	L838.1,715.3L838.1,715.3z M1487.9,630.4h48.4c0.5-3.6,1-8,1.4-13.4s0.6-12,0.6-19.8c0-11.9-1.8-22.1-5.6-30.6
	c-3.7-8.4-8.8-15.4-15.3-20.7s-14.1-9.3-23-11.8s-18.4-3.8-28.8-3.8c-10.6,0-20.6,1.3-30.1,3.9c-9.5,2.6-17.8,6.8-25,12.5
	c-7.1,5.7-12.8,13.2-17.1,22.3c-4.2,9.2-6.3,20.3-6.3,33.4v138.3c0,12.9,2,23.8,6.2,32.9c4.1,9.1,9.7,16.4,16.8,22.2
	s15.4,9.8,24.8,12.3c9.4,2.5,19.5,3.8,30.3,3.8c10.3,0,19.9-1.2,28.8-3.8c8.8-2.5,16.6-6.5,23.2-12c6.6-5.5,11.8-12.4,15.5-20.9
	c3.7-8.4,5.6-18.8,5.6-30.9c0-8.1-0.3-14.8-0.8-20c-0.5-5.2-1.1-9.7-1.6-13.2h-48.4c0.5,2.6,1,6.1,1.4,10.5s0.6,9,0.6,13.8
	c0,6.7-0.5,12.2-1.4,16.4c-0.9,4.3-2.2,7.7-4,10.2s-3.8,4.3-6.2,5.4s-5,1.6-7.9,1.6c-6.1,0-10.8-1.9-14.3-5.7
	c-3.4-3.8-5.2-8.8-5.2-15V593.2c0-6.2,1.7-11.1,5.2-14.7c3.4-3.6,8.1-5.4,13.9-5.4c7.1,0,12.2,2.4,15.3,7.3c3,4.9,4.6,13.6,4.6,26.3
	c0,5-0.1,9.5-0.4,13.6C1488.8,624.4,1488.4,627.8,1487.9,630.4L1487.9,630.4z M1656.7,611.8c-9.1,0-16.6,2.1-22.6,6.2
	c-6,4.2-11.2,8.5-15.8,13h-0.7v-92.9h-50.5v268.3h50.9V669.7c0-5.5,1.5-9.8,4.4-12.9c2.9-3.1,6.3-4.6,10.2-4.6c4.8,0,8.1,1.3,10,3.9
	s2.9,7.7,2.9,15.4v135.1h50.9V663.6c0-17.2-3.5-30.1-10.5-38.8C1678.9,616.2,1669.2,611.8,1656.7,611.8L1656.7,611.8z M1773.5,611.8
	c-20.4,0-36.2,5.3-47.6,15.9c-11.3,10.6-17,27-17,49.1v72.5c0,20.7,5.9,36.2,17.9,46.3c11.9,10.1,27.7,15.2,47.4,15.2
	c19.9,0,34.4-5,43.3-15s13.4-23.1,13.4-39.3c0-4.8-0.1-8.8-0.3-12.2c-0.2-3.3-0.3-6.2-0.3-8.6h-39.9c0,1.4,0.1,3.5,0.2,6.1
	c0.1,2.6,0.2,5.7,0.2,9.3c0,7.4-1.4,12.6-4.1,15.5c-2.8,3-6.4,4.5-11,4.5c-4.6,0-8.2-1.4-10.8-4.1c-2.6-2.7-3.9-7.3-3.9-13.8V719
	h71.8c0.2-4.8,0.5-10.8,0.7-18c0.2-7.3,0.3-14,0.3-20.2c0-23.8-5.3-41.3-15.8-52.3C1807.3,617.4,1792.5,611.8,1773.5,611.8
	L1773.5,611.8z M1788.8,679c-0.1,3.3-0.2,5.8-0.2,7.5h-27.8v-18.9c0-11.4,4.6-17.2,13.7-17.2c4.8,0,8.4,1.5,10.8,4.5
	c2.4,3,3.6,8,3.6,15.2C1789,672.7,1788.9,675.7,1788.8,679L1788.8,679z M1942.8,691.1h43.1c0.2-2.1,0.5-5.1,0.7-8.8
	c0.2-3.7,0.4-7.9,0.4-12.7c0-19.3-5.6-33.8-16.7-43.4c-11.2-9.7-26.3-14.5-45.4-14.5c-20.6,0-37.2,5.1-49.7,15.2
	c-12.5,10.1-18.8,26-18.8,47.7v72.2c0,20,5.5,35.7,16.6,47c11,11.3,28.3,17,51.9,17c8.3,0,16.3-1,23.9-3c7.6-2,14.2-5.4,19.9-10
	c5.6-4.6,10.1-10.7,13.4-18c3.3-7.4,5-16.4,5-27.2c0-4.8-0.1-9.1-0.4-12.9c-0.2-3.8-0.5-6.7-0.7-8.6h-43.1c0.2,1.7,0.5,4.1,0.7,7.3
	c0.2,3.2,0.4,6.2,0.4,9.1c0,15.2-5.5,22.9-16.6,22.9c-4.9,0-8.7-1.5-11.4-4.5c-2.7-3-4.1-8-4.1-15.2v-78.6c0-7.4,1.4-12.6,4.1-15.5
	s6.6-4.5,11.8-4.5c4.7,0,8.5,1.6,11.6,4.8c3.1,3.2,4.6,8.8,4.6,16.6c0,4.1-0.1,7.6-0.4,10.5C1943.3,687.1,1943.1,689.5,1942.8,691.1
	L1942.8,691.1z M2163.6,616.8h-59.9l-29.9,74.7h-0.8V538.2h-59.1v268.3h59.1v-69.7l12.2-16.4l17.7,86.1h61.5l-35.1-125.4
	L2163.6,616.8z M2180.8,538.2h53.6v268.3h-53.6V538.2z M2352.6,732.9c4.3-6.2,9.1-12.7,14.5-19.4c5.4-6.8,10.8-13.5,16.2-20.3
	c9.1-11.2,16.7-24.5,23-40.1c6.3-15.5,9.5-32,9.5-49.5c0-22.6-5.4-39.7-16.3-51.1c-10.8-11.4-27.7-17.1-50.6-17.1
	c-12.4,0-22.6,1.8-30.7,5.2s-14.6,8.2-19.5,14.2c-4.9,5.9-8.3,13-10.2,21.2c-1.9,8.2-2.9,16.9-2.9,26.2c0,4.2,0.2,8.8,0.5,13.6
	c0.4,4.9,0.8,8.3,1.2,10.2h43.6c-0.5-1.6-1-4.7-1.4-9.3c-0.5-4.6-0.7-9-0.7-13.5c0-9.3,1.3-16,3.9-20.1c2.6-4.1,6.9-6.1,12.9-6.1
	c3.1,0,5.7,0.5,7.7,1.4s3.7,2.6,5,5.1s2.3,5.9,2.9,10.3c0.6,4.4,0.9,10.2,0.9,17.1c0,11.2-2.3,21.9-6.8,32
	c-4.5,10.1-9.9,19.7-16.1,28.9c-6.2,9.3-12.4,18.2-18.6,26.6c-6.2,8.4-11.7,16.4-16.4,24.1c-8.6,13.8-14.6,26.5-18.2,38.1
	c-3.6,11.7-5.4,23.9-5.4,36.7v9.1h135.1v-42h-77.9c0-4,1.4-8.7,4.1-14.2C2344.8,744.9,2348.3,739.1,2352.6,732.9L2352.6,732.9z
	 M2622.1,755.1h49.7v51.4h-49.7V755.1z M2792.1,691.1h41.8c0.2-2.1,0.5-5.1,0.7-8.8c0.2-3.7,0.4-7.9,0.4-12.7
	c0-19.3-5.4-33.8-16.3-43.4s-25.5-14.5-44.1-14.5c-20,0-36.1,5.1-48.2,15.2c-12.1,10.1-18.2,26-18.2,47.7v72.2
	c0,20,5.4,35.7,16.1,47c10.7,11.3,27.5,17,50.4,17c8.1,0,15.8-1,23.2-3s13.8-5.4,19.3-10s9.8-10.7,13-18c3.2-7.4,4.8-16.4,4.8-27.2
	c0-4.8-0.1-9.1-0.4-12.9c-0.2-3.8-0.5-6.7-0.7-8.6h-41.8c0.2,1.7,0.5,4.1,0.7,7.3c0.2,3.2,0.4,6.2,0.4,9.1
	c0,15.2-5.4,22.9-16.1,22.9c-4.8,0-8.5-1.5-11.1-4.5c-2.6-3-3.9-8-3.9-15.2v-78.6c0-7.4,1.3-12.6,3.9-15.5c2.6-3,6.4-4.5,11.4-4.5
	c4.5,0,8.3,1.6,11.2,4.8c3,3.2,4.5,8.8,4.5,16.6c0,4.1-0.1,7.6-0.4,10.5C2792.5,687.1,2792.3,689.5,2792.1,691.1L2792.1,691.1z
	 M2969.4,626.6c-6.3-5.1-13.6-8.9-21.8-11.2c-8.2-2.4-17-3.6-26.3-3.6c-9.5,0-18.5,1.4-26.8,4.1c-8.3,2.7-15.5,6.8-21.6,12.2
	s-10.8,12-14.3,20c-3.5,8-5.2,17.1-5.2,27.3V749c0,10.5,1.8,19.6,5.5,27.3c3.7,7.7,8.6,14.1,14.8,19.1c6.2,5,13.4,8.8,21.6,11.2
	s16.9,3.8,25.9,3.8c20.7,0,37.3-5.1,49.7-15.4c12.4-10.2,18.6-25.6,18.6-46.1v-73.6c0-11.2-1.8-20.8-5.4-28.9
	C2980.7,638.4,2975.7,631.8,2969.4,626.6L2969.4,626.6z M2936,752.6c0,11.7-4.9,17.5-14.6,17.5c-9.3,0-13.9-5.8-13.9-17.5v-81.1
	c0-6.7,1-11.6,3-14.7c2-3.1,5.6-4.6,10.9-4.6c4.8,0,8.4,1.4,10.9,4.3s3.8,7.7,3.8,14.7L2936,752.6L2936,752.6z M3220.8,625.9
	c-6.4-9.7-17.5-14.5-33.2-14.5c-10.5,0-19.2,2.2-26.1,6.6c-6.9,4.4-12.9,9.6-17.9,15.5c-3.1-6.9-7.8-12.3-14.1-16.3s-14-5.9-23-5.9
	c-5.7,0-10.8,0.8-15.2,2.5c-4.4,1.7-8.4,3.6-12,5.9s-6.7,4.8-9.3,7.5c-2.6,2.7-4.9,5.2-6.8,7.3h-0.7c-0.2-2.4-0.6-5.4-1.1-9.1
	c-0.5-3.7-0.9-6.6-1.4-8.8h-50.7c0.9,2.6,1.7,5.9,2.1,9.8c0.5,3.9,0.7,9,0.7,15.2v164.7h53.6V668.6c0-4.3,1.4-8.2,4.1-11.6
	s6.7-5.2,12-5.2c4.8,0,8.1,1.4,10,4.1c1.9,2.7,2.9,6.5,2.9,11.2v139.3h53.6V668.6c0-4.8,1.6-8.8,4.6-12c3.1-3.2,6.9-4.8,11.4-4.8
	c8.6,0,12.9,5.1,12.9,15.4v139.3h53.2V665.8C3230.4,648.9,3227.2,635.6,3220.8,625.9L3220.8,625.9z M2549,538h-92v268.5h56.8v-117
	c2.3,0.2,4.6,0.4,6.9,0.4h28.3c35.2,0,63.7-28.5,63.7-63.7v-24.6C2612.7,566.5,2584.2,538,2549,538L2549,538z M2561.3,627.4
	c0,12.9-10.5,23.4-23.4,23.4h-24.1v-74.4h24.1c12.9,0,23.4,10.5,23.4,23.4V627.4z"/>
<path d="M1392.7,917.2h-51.8v101h29.4v-31.8h22.4c11,0,19.5-3.3,25.7-9.9c6.2-6.6,9.2-14.8,9.2-24.6c0-9.9-3.1-18.1-9.2-24.8
	S1403.7,917.2,1392.7,917.2z M1395.3,957.8c-1.7,1.4-3.8,2-6.4,2h-18.6v-15.9h18.6c2.6,0,4.8,0.7,6.4,2s2.5,3.4,2.5,6
	C1397.8,954.5,1397,956.4,1395.3,957.8L1395.3,957.8z M1473.9,933.5c-12.5,0-22.9,4-31.3,12.1c-8.4,8-12.6,18.4-12.6,31.1
	c0,12.7,4.2,23,12.6,31.1s18.8,12.1,31.3,12.1s22.9-4,31.3-12.1c8.4-8,12.6-18.4,12.6-31.1c0-12.7-4.2-23-12.6-31.1
	S1486.4,933.5,1473.9,933.5z M1487.8,991.5c-3.6,4-8.2,6-13.9,6c-5.7,0-10.3-2-13.9-6c-3.6-4-5.3-9-5.3-14.9s1.8-10.9,5.3-14.9
	c3.6-4,8.2-6,13.9-6s10.3,2,13.9,6c3.6,4,5.3,9,5.3,14.9C1493.1,982.6,1491.3,987.5,1487.8,991.5z M1594.8,985.9l-12.1-51h-18.2
	l-12.1,51l-10.3-51h-27.1l22.9,83.4h25.5l10.3-47.2l10.3,47.2h25.5l22.9-83.4H1605L1594.8,985.9z M1636.1,1018.3h60.8v-22h-36.5
	v-9.1h35.7v-22h-35.7v-8.2h36.5v-22h-60.8V1018.3z M1773.8,979.5c2.8-4.2,4.3-9.5,4.3-16c0-8.2-2.5-15-7.6-20.4
	c-5.1-5.5-12.1-8.2-21.2-8.2h-42.8v83.4h24.3V992h8.8l11.1,26.2h27.6l-14.5-29.5C1767.6,986.8,1771,983.7,1773.8,979.5z
	 M1751.2,968.3c-1.5,1.1-3.4,1.7-5.6,1.7h-14.8v-13.1h14.8c2.2,0,4.1,0.6,5.6,1.7s2.3,2.7,2.3,4.8
	C1753.5,965.6,1752.7,967.2,1751.2,968.3L1751.2,968.3z M1786.7,1018.3h60.8v-22H1811v-9.1h35.7v-22H1811v-8.2h36.5v-22h-60.8
	V1018.3z M1924.6,946c-8.2-7.4-18.7-11.1-31.7-11.1h-35.8v83.4h35.9c12.9,0,23.4-3.7,31.6-11.1c8.2-7.4,12.2-17.6,12.2-30.6
	S1932.8,953.3,1924.6,946L1924.6,946z M1906.9,990.5c-3.5,3.8-8.2,5.8-14.1,5.8h-11.5v-39.4h11.6c6.2,0,11,1.8,14.3,5.4
	c3.3,3.6,4.9,8.3,4.9,14.2C1912.2,982,1910.5,986.7,1906.9,990.5L1906.9,990.5z M2045.6,967.7c4.9-1.1,8.8-3.7,11.9-7.8
	c3.1-4.1,4.7-9.2,4.7-15.4c0-6.7-2.5-12.6-7.4-17.9s-12.1-7.9-21.4-7.9h-58.9v101h61c9.2,0,16.3-2.7,21.2-8
	c4.9-5.4,7.4-11.8,7.4-19.4c0-6.5-1.8-12-5.2-16.6C2055.4,971.2,2051,968.5,2045.6,967.7L2045.6,967.7z M2003.9,944.2h22.7
	c1.6,0,2.9,0.5,4.1,1.6c1.2,1.1,1.8,2.4,1.8,4.2s-0.6,3.2-1.8,4.3c-1.2,1.2-2.5,1.7-4.1,1.7h-22.7V944.2z M2032.5,992.6
	c-1.2,1.2-2.9,1.7-5,1.7h-23.6v-12.9h23.6c2,0,3.7,0.6,4.9,1.9s1.9,2.8,1.9,4.6C2034.3,989.9,2033.7,991.4,2032.5,992.6
	L2032.5,992.6z M2108.2,964.5l-15.5-28.1h-28.4l31.2,50.2v33.1h25.2v-33.1l31-50.2h-28.4L2108.2,964.5z M2297.2,959.8
	c-3.8-2-8-3.8-12.5-5.2c-4.5-1.5-8.7-2.5-12.5-3c-3.8-0.6-7-1.3-9.6-2.4s-3.8-2.2-3.8-3.6c0-3,2.4-4.5,7.1-4.5
	c10.1,0,19.2,3.3,27.3,10l15.1-21.7c-10.6-9.4-23.8-14.1-39.4-14.1c-12.1,0-21.5,3.3-28.4,9.8c-6.8,6.6-10.2,14.4-10.2,23.6
	c0,7.4,1.8,13.5,5.4,18.3s7.9,8.2,13,10.1c4.9,1.9,10,3.3,15.2,4.4c5.1,1,9.4,2,13,2.9c3.6,0.9,5.4,2.2,5.4,3.9
	c0,3.6-3.4,5.4-10.3,5.4c-11.6,0-21.6-4.3-30-13l-14.6,22.7c11,10.7,25.4,16.1,43.2,16.1c12.6,0,22.4-3.1,29.5-9.2
	c7.1-6.2,10.7-14.8,10.7-25.9c0-5.9-1.3-10.9-3.8-15.2C2304.2,964.9,2301,961.8,2297.2,959.8L2297.2,959.8z M2310.6,943.4h24.9v74.4
	h28.2v-74.4h24.8v-26.6h-77.9V943.4z M2440.2,915.1c-14.5,0-26.6,4.9-36.3,14.6s-14.6,22.3-14.6,37.6c0,15.4,4.9,27.9,14.6,37.6
	s21.8,14.6,36.3,14.6s26.6-4.9,36.3-14.6c9.7-9.7,14.6-22.3,14.6-37.6c0-15.4-4.9-27.9-14.6-37.6S2454.7,915.1,2440.2,915.1z
	 M2456.3,985.4c-4.1,4.9-9.5,7.3-16.1,7.3s-12-2.4-16.1-7.3c-4.1-4.9-6.2-10.9-6.2-18s2.1-13.2,6.2-18c4.1-4.9,9.5-7.3,16.1-7.3
	s12,2.4,16.1,7.3c4.1,4.9,6.2,10.9,6.2,18C2462.5,974.5,2460.4,980.5,2456.3,985.4z M2577.8,970.8c3.3-5.1,4.9-11.5,4.9-19.4
	c0-9.9-2.9-18.1-8.9-24.8c-5.9-6.6-14.1-9.9-24.6-9.9h-49.6v101h28.2V986h10.2l12.8,31.8h32.1l-16.9-35.8
	C2570.6,979.6,2574.5,975.9,2577.8,970.8L2577.8,970.8z M2551.6,957.3c-1.8,1.4-3.9,2-6.6,2h-17.1v-15.9h17.1c2.6,0,4.8,0.7,6.6,2
	s2.6,3.3,2.6,5.8C2554.2,953.9,2553.3,955.9,2551.6,957.3L2551.6,957.3z M2648,965.2l-16.3-48.5h-38.9v101h28.2V957l20.8,60.7h12.5
	l20.8-60.7v60.7h28.2v-101h-38.9L2648,965.2z M2772.8,916.7l-17,34.1l-17.3-34.1h-31.6l34.9,60.9v40.1h28.2v-40.1l34.6-60.9H2772.8z
	 M2848.6,942c4.1,0,7.8,1.4,11.1,4.3s5.6,6.3,6.8,10.4l24.2-12.3c-3.4-8.3-8.4-15.2-15.3-20.9s-15.8-8.5-27-8.5
	c-14.8,0-27,4.9-36.7,14.5c-9.7,9.7-14.5,22.3-14.5,37.7c0,15.4,4.9,27.9,14.6,37.6s21.9,14.6,36.6,14.6c5.8,0,11.1-0.9,16-2.6
	s9-4.2,12.3-7.2s6.1-6.1,8.4-9.3c2.2-3.2,4.1-6.6,5.6-10.4l-24.2-12.1c-1.2,4-3.5,7.5-6.8,10.4s-7.1,4.3-11.1,4.3
	c-6.7,0-12.1-2.4-16.3-7.3c-4.2-4.9-6.3-10.9-6.3-18s2.1-13.2,6.3-18S2841.9,942,2848.6,942L2848.6,942z M2926.4,916.7h-28.2v101
	h63.4v-26.7h-35.3V916.7z M3014.6,915.1c-14.5,0-26.6,4.9-36.3,14.6s-14.6,22.3-14.6,37.6c0,15.4,4.9,27.9,14.6,37.6
	s21.8,14.6,36.3,14.6s26.6-4.9,36.3-14.6c9.7-9.7,14.6-22.3,14.6-37.6c0-15.4-4.9-27.9-14.6-37.6S3029.1,915.1,3014.6,915.1z
	 M3030.7,985.4c-4.1,4.9-9.5,7.3-16.1,7.3s-12-2.4-16.1-7.3c-4.1-4.9-6.2-10.9-6.2-18s2.1-13.2,6.2-18c4.1-4.9,9.5-7.3,16.1-7.3
	s12,2.4,16.1,7.3c4.1,4.9,6.2,10.9,6.2,18C3036.9,974.5,3034.9,980.5,3030.7,985.4z M3137.4,975.2c0,5.1-1.5,9.2-4.5,12.5
	s-7.3,4.9-12.8,4.9c-5.6,0-9.9-1.6-12.9-4.9c-3-3.3-4.5-7.4-4.5-12.5v-58.5h-28.6v59.5c0,13,3.9,23.5,11.6,31.4s19.2,11.9,34.4,11.9
	c15.1,0,26.6-4,34.3-11.9s11.6-18.4,11.6-31.6v-59.4h-28.6V975.2L3137.4,975.2z M3258,930.1c-9.5-8.9-21.8-13.4-36.8-13.4h-41.5v101
	h41.7c15,0,27.2-4.5,36.7-13.5s14.2-21.4,14.2-37.1S3267.5,939.1,3258,930.1L3258,930.1z M3237.5,984.1c-4.1,4.6-9.5,7-16.3,7h-13.4
	v-47.7h13.5c7.2,0,12.8,2.2,16.6,6.5s5.7,10.1,5.7,17.3C3243.7,973.8,3241.6,979.5,3237.5,984.1L3237.5,984.1z M2177.3,915.2h17.7
	v104.4h-17.7V915.2z"/>
</svg>
