<svg xmlns="http://www.w3.org/2000/svg" xml:space="preserve" id="Layer_1" x="0" y="0" version="1.1" viewBox="0 0 3381.2 1325"><style>.st1{fill:#fff}</style><linearGradient id="SVGID_1_" x1="1700.21" x2="1700.21" y1="1476.95" y2="543.52" gradientTransform="matrix(1 0 0 -1 0 1632.26)" gradientUnits="userSpaceOnUse"><stop offset="0" stop-color="#0080bf"/><stop offset="1" stop-color="#074b92"/></linearGradient><path fill="url(#SVGID_1_)" d="M3223.6 486.3H1366c-13.3 0-25.6 4.7-35.2 12.5C1259.9 221.1 1008 15.7 708.2 15.7c-354.9 0-642.6 287.7-642.6 642.6s287.7 642.6 642.6 642.6c292.6 0 539.5-195.6 617.2-463.2 10 10.4 24 16.8 39.5 16.8h1858.8c61.4 0 111.2-49.8 111.2-111.2V597.5c0-61.4-49.8-111.2-111.3-111.2z"/><path d="M1220.9 609.8c-22.1 0-40.9 14.4-47.4 34.4H980.3v-90.3c0-4.1-1.7-8.1-4.6-11L824 392.5c-2.9-2.9-6.8-4.5-10.9-4.5h-89V194.9a49.98 49.98 0 0 0 34.4-47.4c0-27.5-22.4-49.9-49.9-49.9s-49.9 22.4-49.9 49.9c0 22.1 14.4 40.9 34.4 47.4V388h-91.5c-4.1 0-8.1 1.7-11 4.6L441.5 543c-2.9 2.9-4.5 6.8-4.5 10.9v90.3H243.7a49.98 49.98 0 0 0-47.4-34.4c-27.5 0-49.9 22.4-49.9 49.9s22.4 49.9 49.9 49.9c22.1 0 40.9-14.4 47.4-34.4H437v89.6c0 4.1 1.6 8 4.5 10.9l149.8 150.9c2.9 2.9 6.9 4.6 11 4.6h90.9v194.3a49.98 49.98 0 0 0-34.4 47.4c0 27.5 22.4 49.9 49.9 49.9s49.9-22.4 49.9-49.9c0-22.1-14.4-40.9-34.4-47.4V931.1h92.2c4.1 0 8.1-1.7 11-4.6l148.5-150.2c2.9-2.9 4.5-6.8 4.5-10.9v-90.2h193.1a49.98 49.98 0 0 0 47.4 34.4c27.5 0 49.9-22.4 49.9-49.9-.1-27.5-22.4-49.9-49.9-49.9zM196.3 678.6c-10.4 0-18.9-8.5-18.9-18.9 0-10.4 8.5-18.9 18.9-18.9 10.4 0 18.9 8.5 18.9 18.9 0 10.4-8.5 18.9-18.9 18.9zm493.5-531.1c0-10.4 8.5-18.9 18.9-18.9s18.9 8.5 18.9 18.9-8.5 18.9-18.9 18.9-18.9-8.5-18.9-18.9zm37.7 1025.3c0 10.4-8.5 18.9-18.9 18.9s-18.9-8.5-18.9-18.9c0-10.4 8.5-18.9 18.9-18.9s18.9 8.5 18.9 18.9zM949.3 759 809.9 900.1H608.7L468 758.4V560.3L608.1 419h198.7l142.6 141.3-.1 198.7zm271.6-80.4c-10.4 0-18.9-8.5-18.9-18.9 0-10.4 8.5-18.9 18.9-18.9 10.4 0 18.9 8.5 18.9 18.9s-8.5 18.9-18.9 18.9z" class="st1"/><path d="M526.6 312.3c0 27.5 22.4 49.9 49.9 49.9s49.9-22.4 49.9-49.9c0-22.3-14.7-41.2-34.9-47.6v-52.2a50.01 50.01 0 0 0 34.9-47.6c0-27.5-22.4-49.9-49.9-49.9s-49.9 22.4-49.9 49.9c0 22.3 14.7 41.2 34.9 47.6v52.2a49.89 49.89 0 0 0-34.9 47.6zm31-147.3c0-10.4 8.5-18.9 18.9-18.9 10.4 0 18.9 8.5 18.9 18.9s-8.5 18.9-18.9 18.9-18.9-8.5-18.9-18.9zm18.8 128.4c10.4 0 18.9 8.5 18.9 18.9s-8.5 18.9-18.9 18.9c-10.4 0-18.9-8.5-18.9-18.9s8.5-18.9 18.9-18.9zm215.9 18.9c0 27.5 22.4 49.9 49.9 49.9s49.9-22.4 49.9-49.9c0-22.3-14.7-41.2-34.9-47.6v-52.2a50.01 50.01 0 0 0 34.9-47.6c0-27.5-22.4-49.9-49.9-49.9s-49.9 22.4-49.9 49.9c0 22.3 14.7 41.2 34.9 47.6v52.2a50.01 50.01 0 0 0-34.9 47.6zm31-147.3c0-10.4 8.5-18.9 18.9-18.9 10.4 0 18.9 8.5 18.9 18.9s-8.5 18.9-18.9 18.9c-10.4-.1-18.9-8.5-18.9-18.9zm18.9 128.4c10.4 0 18.9 8.5 18.9 18.9s-8.5 18.9-18.9 18.9c-10.4 0-18.9-8.5-18.9-18.9s8.5-18.9 18.9-18.9zm-215.9 714.1c0-27.5-22.4-49.9-49.9-49.9s-49.9 22.4-49.9 49.9c0 22.3 14.7 41.2 34.9 47.6v52.2a50.01 50.01 0 0 0-34.9 47.6c0 27.5 22.4 49.9 49.9 49.9s49.9-22.4 49.9-49.9c0-22.3-14.7-41.2-34.9-47.6v-52.2a50.01 50.01 0 0 0 34.9-47.6zm-31 147.4c0 10.4-8.5 18.9-18.9 18.9-10.4 0-18.9-8.5-18.9-18.9s8.5-18.9 18.9-18.9c10.4 0 18.9 8.4 18.9 18.9zm-18.9-128.5c-10.4 0-18.9-8.5-18.9-18.9 0-10.4 8.5-18.9 18.9-18.9 10.4 0 18.9 8.5 18.9 18.9 0 10.5-8.5 18.9-18.9 18.9zm315.6-18.9c0-27.5-22.4-49.9-49.9-49.9s-49.9 22.4-49.9 49.9c0 22.3 14.7 41.2 34.9 47.6v52.2a50.01 50.01 0 0 0-34.9 47.6c0 27.5 22.4 49.9 49.9 49.9s49.9-22.4 49.9-49.9c0-22.3-14.7-41.2-34.9-47.6v-52.2a50.01 50.01 0 0 0 34.9-47.6zm-31 147.4c0 10.4-8.5 18.9-18.9 18.9-10.4 0-18.9-8.5-18.9-18.9s8.5-18.9 18.9-18.9c10.5 0 18.9 8.4 18.9 18.9zm-18.8-128.5c-10.4 0-18.9-8.5-18.9-18.9 0-10.4 8.5-18.9 18.9-18.9 10.4 0 18.9 8.5 18.9 18.9-.1 10.5-8.5 18.9-18.9 18.9zM213.9 577.2c22.1 0 40.9-14.4 47.4-34.4H318a49.98 49.98 0 0 0 47.4 34.4c27.5 0 49.9-22.4 49.9-49.9s-22.4-49.9-49.9-49.9c-22.1 0-40.9 14.4-47.4 34.4h-56.8a49.98 49.98 0 0 0-47.4-34.4c-27.5 0-49.9 22.4-49.9 49.9s22.5 49.9 50 49.9zm151.6-68.8c10.4 0 18.9 8.5 18.9 18.9 0 10.4-8.5 18.9-18.9 18.9-10.4 0-18.9-8.5-18.9-18.9s8.4-18.9 18.9-18.9zm-151.6 0c10.4 0 18.9 8.5 18.9 18.9 0 10.4-8.5 18.9-18.9 18.9-10.4 0-18.9-8.5-18.9-18.9s8.5-18.9 18.9-18.9zm47.4 298.9H318a49.98 49.98 0 0 0 47.4 34.4c27.5 0 49.9-22.4 49.9-49.9S392.9 742 365.4 742c-22.1 0-40.9 14.4-47.4 34.4h-56.8a49.98 49.98 0 0 0-47.4-34.4c-27.5 0-49.9 22.4-49.9 49.9s22.4 49.9 49.9 49.9a50.2 50.2 0 0 0 47.5-34.5zM365.5 773c10.4 0 18.9 8.5 18.9 18.9s-8.5 18.9-18.9 18.9c-10.4 0-18.9-8.5-18.9-18.9S355 773 365.5 773zm-151.6 37.7c-10.4 0-18.9-8.5-18.9-18.9s8.5-18.9 18.9-18.9c10.4 0 18.9 8.5 18.9 18.9s-8.5 18.9-18.9 18.9zM1157 511.9h-56.8a49.98 49.98 0 0 0-47.4-34.4c-27.5 0-49.9 22.4-49.9 49.9s22.4 49.9 49.9 49.9c22.1 0 40.9-14.4 47.4-34.4h56.8a49.98 49.98 0 0 0 47.4 34.4c27.5 0 49.9-22.4 49.9-49.9s-22.4-49.9-49.9-49.9c-22.1.1-40.9 14.5-47.4 34.4zm-104.2 34.4c-10.4 0-18.9-8.5-18.9-18.9 0-10.4 8.5-18.9 18.9-18.9 10.4 0 18.9 8.5 18.9 18.9 0 10.4-8.5 18.9-18.9 18.9zm151.6-37.7c10.4 0 18.9 8.5 18.9 18.9 0 10.4-8.5 18.9-18.9 18.9-10.4 0-18.9-8.5-18.9-18.9 0-10.5 8.5-18.9 18.9-18.9zm0 233.5c-22.1 0-40.9 14.4-47.4 34.4h-56.8a49.98 49.98 0 0 0-47.4-34.4c-27.5 0-49.9 22.4-49.9 49.9s22.4 49.9 49.9 49.9c22.1 0 40.9-14.4 47.4-34.4h56.8a49.98 49.98 0 0 0 47.4 34.4c27.5 0 49.9-22.4 49.9-49.9s-22.4-49.9-49.9-49.9zm-151.6 68.7c-10.4 0-18.9-8.5-18.9-18.9s8.5-18.9 18.9-18.9c10.4 0 18.9 8.5 18.9 18.9s-8.5 18.9-18.9 18.9zm151.6 0c-10.4 0-18.9-8.5-18.9-18.9s8.5-18.9 18.9-18.9c10.4 0 18.9 8.5 18.9 18.9s-8.5 18.9-18.9 18.9zM265 453.4c22.1 0 40.9-14.4 47.4-34.4h139.9c8.6 0 15.5-6.9 15.5-15.5V263.6a49.98 49.98 0 0 0 34.4-47.4c0-27.5-22.4-49.9-49.9-49.9s-49.9 22.4-49.9 49.9c0 22.1 14.4 40.9 34.4 47.4V388H312.4a49.98 49.98 0 0 0-47.4-34.4c-27.5 0-49.9 22.4-49.9 49.9s22.4 49.9 49.9 49.9zm168.4-237.2c0-10.4 8.5-18.9 18.9-18.9 10.4 0 18.9 8.5 18.9 18.9 0 10.4-8.5 18.9-18.9 18.9-10.4 0-18.9-8.5-18.9-18.9zM265 384.6c10.4 0 18.9 8.5 18.9 18.9 0 10.4-8.5 18.9-18.9 18.9-10.4 0-18.9-8.5-18.9-18.9 0-10.4 8.5-18.9 18.9-18.9z" class="st1"/><path d="M346.5 347.2c27.5 0 49.9-22.4 49.9-49.9s-22.4-49.9-49.9-49.9-49.9 22.4-49.9 49.9 22.4 49.9 49.9 49.9zm0-68.7c10.4 0 18.9 8.5 18.9 18.9 0 10.4-8.5 18.9-18.9 18.9-10.4 0-18.9-8.5-18.9-18.9.1-10.5 8.5-18.9 18.9-18.9zM949.3 263v139.9c0 8.6 6.9 15.5 15.5 15.5h139.9a49.98 49.98 0 0 0 47.4 34.4c27.5 0 49.9-22.4 49.9-49.9s-22.4-49.9-49.9-49.9c-22.1 0-40.9 14.4-47.4 34.4H980.3V263a49.98 49.98 0 0 0 34.4-47.4c0-27.5-22.4-49.9-49.9-49.9S915 188.1 915 215.6a49.9 49.9 0 0 0 34.3 47.4zm202.8 121c10.4 0 18.9 8.5 18.9 18.9 0 10.4-8.5 18.9-18.9 18.9s-18.9-8.5-18.9-18.9 8.5-18.9 18.9-18.9zM964.8 196.8c10.4 0 18.9 8.5 18.9 18.9 0 10.4-8.5 18.9-18.9 18.9-10.4 0-18.9-8.5-18.9-18.9.1-10.5 8.5-18.9 18.9-18.9z" class="st1"/><path d="M1070.6 346.6c27.5 0 49.9-22.4 49.9-49.9s-22.4-49.9-49.9-49.9-49.9 22.4-49.9 49.9 22.4 49.9 49.9 49.9zm0-68.7c10.4 0 18.9 8.5 18.9 18.9 0 10.4-8.5 18.9-18.9 18.9-10.4 0-18.9-8.5-18.9-18.9 0-10.5 8.5-18.9 18.9-18.9zm81.5 587.8c-22.1 0-40.9 14.4-47.4 34.4H964.8c-8.6 0-15.5 6.9-15.5 15.5v139.9a49.98 49.98 0 0 0-34.4 47.4c0 27.5 22.4 49.9 49.9 49.9s49.9-22.4 49.9-49.9c0-22.1-14.4-40.9-34.4-47.4V931.1h124.4a49.98 49.98 0 0 0 47.4 34.4c27.5 0 49.9-22.4 49.9-49.9s-22.4-49.9-49.9-49.9zm-168.4 237.2c0 10.4-8.5 18.9-18.9 18.9-10.4 0-18.9-8.5-18.9-18.9s8.5-18.9 18.9-18.9c10.4 0 18.9 8.5 18.9 18.9zm168.4-168.4c-10.4 0-18.9-8.5-18.9-18.9 0-10.4 8.5-18.9 18.9-18.9s18.9 8.5 18.9 18.9-8.5 18.9-18.9 18.9z" class="st1"/><path d="M1070.6 971.9c-27.5 0-49.9 22.4-49.9 49.9s22.4 49.9 49.9 49.9 49.9-22.4 49.9-49.9-22.4-49.9-49.9-49.9zm0 68.8c-10.4 0-18.9-8.5-18.9-18.9s8.5-18.9 18.9-18.9c10.4 0 18.9 8.5 18.9 18.9s-8.5 18.9-18.9 18.9zm-602.8 15.4V916.2c0-8.6-6.9-15.5-15.5-15.5H312.4a49.98 49.98 0 0 0-47.4-34.4c-27.5 0-49.9 22.4-49.9 49.9s22.4 49.9 49.9 49.9c22.1 0 40.9-14.4 47.4-34.4h124.4v124.4a49.98 49.98 0 0 0-34.4 47.4c0 27.5 22.4 49.9 49.9 49.9s49.9-22.4 49.9-49.9c0-22.1-14.5-40.9-34.4-47.4zM265 935.1c-10.4 0-18.9-8.5-18.9-18.9s8.5-18.9 18.9-18.9c10.4 0 18.9 8.5 18.9 18.9s-8.5 18.9-18.9 18.9zm187.3 187.2c-10.4 0-18.9-8.5-18.9-18.9 0-10.4 8.5-18.9 18.9-18.9 10.4 0 18.9 8.5 18.9 18.9 0 10.5-8.5 18.9-18.9 18.9z" class="st1"/><path d="M346.5 972.5c-27.5 0-49.9 22.4-49.9 49.9s22.4 49.9 49.9 49.9 49.9-22.4 49.9-49.9-22.4-49.9-49.9-49.9zm0 68.7c-10.4 0-18.9-8.5-18.9-18.9s8.5-18.9 18.9-18.9c10.4 0 18.9 8.5 18.9 18.9s-8.4 18.9-18.9 18.9zm423.6-541.4h-119c-4.1 0-8 1.6-10.9 4.5l-87.4 86.8c-2.9 2.9-4.6 6.9-4.6 11v117.6c0 4.1 1.7 8.1 4.6 11l87.4 86.8c2.9 2.9 6.8 4.5 10.9 4.5h118.3c4.1 0 8.1-1.7 11-4.6l84.2-84.9c2.9-2.9 4.5-6.8 4.5-10.9V600.2c0-4.1-1.6-8-4.5-10.9L781 504.4c-2.8-2.9-6.8-4.6-10.9-4.6zm68 215.5L763 791H657.5l-78.3-77.7V608.5l78.3-77.7h106.1l74.6 75.7-.1 108.8zm649.8-84.9h48.4c.5-3.6 1-8 1.4-13.4s.6-12 .6-19.8c0-11.9-1.8-22.1-5.6-30.6-3.7-8.4-8.8-15.4-15.3-20.7s-14.1-9.3-23-11.8-18.4-3.8-28.8-3.8c-10.6 0-20.6 1.3-30.1 3.9a69.2 69.2 0 0 0-25 12.5c-7.1 5.7-12.8 13.2-17.1 22.3-4.2 9.2-6.3 20.3-6.3 33.4v138.3c0 12.9 2 23.8 6.2 32.9 4.1 9.1 9.7 16.4 16.8 22.2s15.4 9.8 24.8 12.3 19.5 3.8 30.3 3.8c10.3 0 19.9-1.2 28.8-3.8 8.8-2.5 16.6-6.5 23.2-12 6.6-5.5 11.8-12.4 15.5-20.9 3.7-8.4 5.6-18.8 5.6-30.9 0-8.1-.3-14.8-.8-20-.5-5.2-1.1-9.7-1.6-13.2h-48.4c.5 2.6 1 6.1 1.4 10.5s.6 9 .6 13.8c0 6.7-.5 12.2-1.4 16.4-.9 4.3-2.2 7.7-4 10.2s-3.8 4.3-6.2 5.4-5 1.6-7.9 1.6c-6.1 0-10.8-1.9-14.3-5.7-3.4-3.8-5.2-8.8-5.2-15V593.2c0-6.2 1.7-11.1 5.2-14.7 3.4-3.6 8.1-5.4 13.9-5.4 7.1 0 12.2 2.4 15.3 7.3 3 4.9 4.6 13.6 4.6 26.3 0 5-.1 9.5-.4 13.6-.3 4.1-.7 7.5-1.2 10.1zm168.8-18.6c-9.1 0-16.6 2.1-22.6 6.2-6 4.2-11.2 8.5-15.8 13h-.7v-92.9h-50.5v268.3h50.9V669.7c0-5.5 1.5-9.8 4.4-12.9 2.9-3.1 6.3-4.6 10.2-4.6 4.8 0 8.1 1.3 10 3.9s2.9 7.7 2.9 15.4v135.1h50.9v-143c0-17.2-3.5-30.1-10.5-38.8-7-8.6-16.7-13-29.2-13zm116.8 0c-20.4 0-36.2 5.3-47.6 15.9-11.3 10.6-17 27-17 49.1v72.5c0 20.7 5.9 36.2 17.9 46.3 11.9 10.1 27.7 15.2 47.4 15.2 19.9 0 34.4-5 43.3-15s13.4-23.1 13.4-39.3c0-4.8-.1-8.8-.3-12.2-.2-3.3-.3-6.2-.3-8.6h-39.9c0 1.4.1 3.5.2 6.1.1 2.6.2 5.7.2 9.3 0 7.4-1.4 12.6-4.1 15.5-2.8 3-6.4 4.5-11 4.5s-8.2-1.4-10.8-4.1c-2.6-2.7-3.9-7.3-3.9-13.8V719h71.8c.2-4.8.5-10.8.7-18 .2-7.3.3-14 .3-20.2 0-23.8-5.3-41.3-15.8-52.3-10.7-11.1-25.5-16.7-44.5-16.7zm15.3 67.2c-.1 3.3-.2 5.8-.2 7.5h-27.8v-18.9c0-11.4 4.6-17.2 13.7-17.2 4.8 0 8.4 1.5 10.8 4.5 2.4 3 3.6 8 3.6 15.2.1 2.6 0 5.6-.1 8.9zm154 12.1h43.1c.2-2.1.5-5.1.7-8.8.2-3.7.4-7.9.4-12.7 0-19.3-5.6-33.8-16.7-43.4-11.2-9.7-26.3-14.5-45.4-14.5-20.6 0-37.2 5.1-49.7 15.2s-18.8 26-18.8 47.7v72.2c0 20 5.5 35.7 16.6 47 11 11.3 28.3 17 51.9 17 8.3 0 16.3-1 23.9-3 7.6-2 14.2-5.4 19.9-10 5.6-4.6 10.1-10.7 13.4-18 3.3-7.4 5-16.4 5-27.2 0-4.8-.1-9.1-.4-12.9-.2-3.8-.5-6.7-.7-8.6h-43.1c.2 1.7.5 4.1.7 7.3.2 3.2.4 6.2.4 9.1 0 15.2-5.5 22.9-16.6 22.9-4.9 0-8.7-1.5-11.4-4.5-2.7-3-4.1-8-4.1-15.2v-78.6c0-7.4 1.4-12.6 4.1-15.5s6.6-4.5 11.8-4.5c4.7 0 8.5 1.6 11.6 4.8 3.1 3.2 4.6 8.8 4.6 16.6 0 4.1-.1 7.6-.4 10.5-.3 3.1-.5 5.5-.8 7.1zm220.8-74.3h-59.9l-29.9 74.7h-.8V538.2h-59.1v268.3h59.1v-69.7l12.2-16.4 17.7 86.1h61.5l-35.1-125.4 34.3-64.3zm17.2-78.6h53.6v268.3h-53.6V538.2zm171.8 194.7c4.3-6.2 9.1-12.7 14.5-19.4 5.4-6.8 10.8-13.5 16.2-20.3 9.1-11.2 16.7-24.5 23-40.1 6.3-15.5 9.5-32 9.5-49.5 0-22.6-5.4-39.7-16.3-51.1-10.8-11.4-27.7-17.1-50.6-17.1-12.4 0-22.6 1.8-30.7 5.2s-14.6 8.2-19.5 14.2c-4.9 5.9-8.3 13-10.2 21.2-1.9 8.2-2.9 16.9-2.9 26.2 0 4.2.2 8.8.5 13.6.4 4.9.8 8.3 1.2 10.2h43.6c-.5-1.6-1-4.7-1.4-9.3-.5-4.6-.7-9-.7-13.5 0-9.3 1.3-16 3.9-20.1 2.6-4.1 6.9-6.1 12.9-6.1 3.1 0 5.7.5 7.7 1.4s3.7 2.6 5 5.1 2.3 5.9 2.9 10.3c.6 4.4.9 10.2.9 17.1 0 11.2-2.3 21.9-6.8 32-4.5 10.1-9.9 19.7-16.1 28.9a680.8 680.8 0 0 1-18.6 26.6c-6.2 8.4-11.7 16.4-16.4 24.1-8.6 13.8-14.6 26.5-18.2 38.1-3.6 11.7-5.4 23.9-5.4 36.7v9.1h135.1v-42h-77.9c0-4 1.4-8.7 4.1-14.2 2.9-5.3 6.4-11.1 10.7-17.3zm269.5 22.2h49.7v51.4h-49.7v-51.4zm170-64h41.8c.2-2.1.5-5.1.7-8.8.2-3.7.4-7.9.4-12.7 0-19.3-5.4-33.8-16.3-43.4s-25.5-14.5-44.1-14.5c-20 0-36.1 5.1-48.2 15.2-12.1 10.1-18.2 26-18.2 47.7v72.2c0 20 5.4 35.7 16.1 47 10.7 11.3 27.5 17 50.4 17 8.1 0 15.8-1 23.2-3s13.8-5.4 19.3-10 9.8-10.7 13-18c3.2-7.4 4.8-16.4 4.8-27.2 0-4.8-.1-9.1-.4-12.9-.2-3.8-.5-6.7-.7-8.6h-41.8c.2 1.7.5 4.1.7 7.3.2 3.2.4 6.2.4 9.1 0 15.2-5.4 22.9-16.1 22.9-4.8 0-8.5-1.5-11.1-4.5-2.6-3-3.9-8-3.9-15.2v-78.6c0-7.4 1.3-12.6 3.9-15.5 2.6-3 6.4-4.5 11.4-4.5 4.5 0 8.3 1.6 11.2 4.8 3 3.2 4.5 8.8 4.5 16.6 0 4.1-.1 7.6-.4 10.5-.2 3.1-.4 5.5-.6 7.1zm177.3-64.5c-6.3-5.1-13.6-8.9-21.8-11.2-8.2-2.4-17-3.6-26.3-3.6-9.5 0-18.5 1.4-26.8 4.1-8.3 2.7-15.5 6.8-21.6 12.2s-10.8 12-14.3 20-5.2 17.1-5.2 27.3V749c0 10.5 1.8 19.6 5.5 27.3 3.7 7.7 8.6 14.1 14.8 19.1 6.2 5 13.4 8.8 21.6 11.2s16.9 3.8 25.9 3.8c20.7 0 37.3-5.1 49.7-15.4 12.4-10.2 18.6-25.6 18.6-46.1v-73.6c0-11.2-1.8-20.8-5.4-28.9-3.4-8-8.4-14.6-14.7-19.8zm-33.4 126c0 11.7-4.9 17.5-14.6 17.5-9.3 0-13.9-5.8-13.9-17.5v-81.1c0-6.7 1-11.6 3-14.7 2-3.1 5.6-4.6 10.9-4.6 4.8 0 8.4 1.4 10.9 4.3s3.8 7.7 3.8 14.7l-.1 81.4zm284.8-126.7c-6.4-9.7-17.5-14.5-33.2-14.5-10.5 0-19.2 2.2-26.1 6.6-6.9 4.4-12.9 9.6-17.9 15.5-3.1-6.9-7.8-12.3-14.1-16.3s-14-5.9-23-5.9c-5.7 0-10.8.8-15.2 2.5-4.4 1.7-8.4 3.6-12 5.9s-6.7 4.8-9.3 7.5c-2.6 2.7-4.9 5.2-6.8 7.3h-.7c-.2-2.4-.6-5.4-1.1-9.1-.5-3.7-.9-6.6-1.4-8.8h-50.7c.9 2.6 1.7 5.9 2.1 9.8.5 3.9.7 9 .7 15.2v164.7h53.6V668.6c0-4.3 1.4-8.2 4.1-11.6s6.7-5.2 12-5.2c4.8 0 8.1 1.4 10 4.1 1.9 2.7 2.9 6.5 2.9 11.2v139.3h53.6V668.6c0-4.8 1.6-8.8 4.6-12 3.1-3.2 6.9-4.8 11.4-4.8 8.6 0 12.9 5.1 12.9 15.4v139.3h53.2V665.8c0-16.9-3.2-30.2-9.6-39.9zM2549 538h-92v268.5h56.8v-117c2.3.2 4.6.4 6.9.4h28.3c35.2 0 63.7-28.5 63.7-63.7v-24.6c0-35.1-28.5-63.6-63.7-63.6zm12.3 89.4c0 12.9-10.5 23.4-23.4 23.4h-24.1v-74.4h24.1c12.9 0 23.4 10.5 23.4 23.4v27.6z" class="st1"/><path d="M1392.7 917.2h-51.8v101h29.4v-31.8h22.4c11 0 19.5-3.3 25.7-9.9 6.2-6.6 9.2-14.8 9.2-24.6 0-9.9-3.1-18.1-9.2-24.8s-14.7-9.9-25.7-9.9zm2.6 40.6c-1.7 1.4-3.8 2-6.4 2h-18.6v-15.9h18.6c2.6 0 4.8.7 6.4 2s2.5 3.4 2.5 6-.8 4.5-2.5 5.9zm78.6-24.3c-12.5 0-22.9 4-31.3 12.1-8.4 8-12.6 18.4-12.6 31.1 0 12.7 4.2 23 12.6 31.1s18.8 12.1 31.3 12.1 22.9-4 31.3-12.1c8.4-8 12.6-18.4 12.6-31.1 0-12.7-4.2-23-12.6-31.1s-18.8-12.1-31.3-12.1zm13.9 58c-3.6 4-8.2 6-13.9 6-5.7 0-10.3-2-13.9-6-3.6-4-5.3-9-5.3-14.9s1.8-10.9 5.3-14.9c3.6-4 8.2-6 13.9-6s10.3 2 13.9 6c3.6 4 5.3 9 5.3 14.9 0 6-1.8 10.9-5.3 14.9zm107-5.6-12.1-51h-18.2l-12.1 51-10.3-51H1515l22.9 83.4h25.5l10.3-47.2 10.3 47.2h25.5l22.9-83.4H1605l-10.2 51zm41.3 32.4h60.8v-22h-36.5v-9.1h35.7v-22h-35.7V957h36.5v-22h-60.8v83.3zm137.7-38.8c2.8-4.2 4.3-9.5 4.3-16 0-8.2-2.5-15-7.6-20.4-5.1-5.5-12.1-8.2-21.2-8.2h-42.8v83.4h24.3V992h8.8l11.1 26.2h27.6l-14.5-29.5c3.8-1.9 7.2-5 10-9.2zm-22.6-11.2a9.3 9.3 0 0 1-5.6 1.7h-14.8v-13.1h14.8c2.2 0 4.1.6 5.6 1.7s2.3 2.7 2.3 4.8c0 2.2-.8 3.8-2.3 4.9zm35.5 50h60.8v-22H1811v-9.1h35.7v-22H1811V957h36.5v-22h-60.8v83.3zm137.9-72.3c-8.2-7.4-18.7-11.1-31.7-11.1h-35.8v83.4h35.9c12.9 0 23.4-3.7 31.6-11.1 8.2-7.4 12.2-17.6 12.2-30.6s-4-23.3-12.2-30.6zm-17.7 44.5c-3.5 3.8-8.2 5.8-14.1 5.8h-11.5v-39.4h11.6c6.2 0 11 1.8 14.3 5.4 3.3 3.6 4.9 8.3 4.9 14.2.1 5.5-1.6 10.2-5.2 14zm138.7-22.8c4.9-1.1 8.8-3.7 11.9-7.8 3.1-4.1 4.7-9.2 4.7-15.4 0-6.7-2.5-12.6-7.4-17.9s-12.1-7.9-21.4-7.9h-58.9v101h61c9.2 0 16.3-2.7 21.2-8a27.8 27.8 0 0 0 7.4-19.4c0-6.5-1.8-12-5.2-16.6-3.5-4.5-7.9-7.2-13.3-8zm-41.7-23.5h22.7c1.6 0 2.9.5 4.1 1.6 1.2 1.1 1.8 2.4 1.8 4.2s-.6 3.2-1.8 4.3a5.44 5.44 0 0 1-4.1 1.7h-22.7v-11.8zm28.6 48.4c-1.2 1.2-2.9 1.7-5 1.7h-23.6v-12.9h23.6c2 0 3.7.6 4.9 1.9s1.9 2.8 1.9 4.6c0 2-.6 3.5-1.8 4.7zm75.7-28.1-15.5-28.1h-28.4l31.2 50.2v33.1h25.2v-33.1l31-50.2h-28.4l-15.1 28.1zm189-4.7c-3.8-2-8-3.8-12.5-5.2-4.5-1.5-8.7-2.5-12.5-3-3.8-.6-7-1.3-9.6-2.4s-3.8-2.2-3.8-3.6c0-3 2.4-4.5 7.1-4.5 10.1 0 19.2 3.3 27.3 10l15.1-21.7c-10.6-9.4-23.8-14.1-39.4-14.1-12.1 0-21.5 3.3-28.4 9.8-6.8 6.6-10.2 14.4-10.2 23.6 0 7.4 1.8 13.5 5.4 18.3s7.9 8.2 13 10.1c4.9 1.9 10 3.3 15.2 4.4 5.1 1 9.4 2 13 2.9 3.6.9 5.4 2.2 5.4 3.9 0 3.6-3.4 5.4-10.3 5.4-11.6 0-21.6-4.3-30-13l-14.6 22.7c11 10.7 25.4 16.1 43.2 16.1 12.6 0 22.4-3.1 29.5-9.2 7.1-6.2 10.7-14.8 10.7-25.9 0-5.9-1.3-10.9-3.8-15.2-2.8-4.3-6-7.4-9.8-9.4zm13.4-16.4h24.9v74.4h28.2v-74.4h24.8v-26.6h-77.9v26.6zm129.6-28.3c-14.5 0-26.6 4.9-36.3 14.6s-14.6 22.3-14.6 37.6c0 15.4 4.9 27.9 14.6 37.6s21.8 14.6 36.3 14.6 26.6-4.9 36.3-14.6c9.7-9.7 14.6-22.3 14.6-37.6 0-15.4-4.9-27.9-14.6-37.6s-21.8-14.6-36.3-14.6zm16.1 70.3c-4.1 4.9-9.5 7.3-16.1 7.3s-12-2.4-16.1-7.3c-4.1-4.9-6.2-10.9-6.2-18s2.1-13.2 6.2-18c4.1-4.9 9.5-7.3 16.1-7.3s12 2.4 16.1 7.3c4.1 4.9 6.2 10.9 6.2 18s-2.1 13.1-6.2 18zm121.5-14.6c3.3-5.1 4.9-11.5 4.9-19.4 0-9.9-2.9-18.1-8.9-24.8-5.9-6.6-14.1-9.9-24.6-9.9h-49.6v101h28.2V986h10.2l12.8 31.8h32.1L2566 982c4.6-2.4 8.5-6.1 11.8-11.2zm-26.2-13.5c-1.8 1.4-3.9 2-6.6 2h-17.1v-15.9h17.1c2.6 0 4.8.7 6.6 2s2.6 3.3 2.6 5.8c0 2.7-.9 4.7-2.6 6.1zm96.4 7.9-16.3-48.5h-38.9v101h28.2V957l20.8 60.7h12.5l20.8-60.7v60.7h28.2v-101h-38.9l-16.4 48.5zm124.8-48.5-17 34.1-17.3-34.1h-31.6l34.9 60.9v40.1h28.2v-40.1l34.6-60.9h-31.8zm75.8 25.3c4.1 0 7.8 1.4 11.1 4.3s5.6 6.3 6.8 10.4l24.2-12.3c-3.4-8.3-8.4-15.2-15.3-20.9s-15.8-8.5-27-8.5c-14.8 0-27 4.9-36.7 14.5-9.7 9.7-14.5 22.3-14.5 37.7 0 15.4 4.9 27.9 14.6 37.6s21.9 14.6 36.6 14.6c5.8 0 11.1-.9 16-2.6s9-4.2 12.3-7.2 6.1-6.1 8.4-9.3c2.2-3.2 4.1-6.6 5.6-10.4l-24.2-12.1c-1.2 4-3.5 7.5-6.8 10.4s-7.1 4.3-11.1 4.3c-6.7 0-12.1-2.4-16.3-7.3-4.2-4.9-6.3-10.9-6.3-18s2.1-13.2 6.3-18 9.6-7.2 16.3-7.2zm77.8-25.3h-28.2v101h63.4V991h-35.3v-74.3zm88.2-1.6c-14.5 0-26.6 4.9-36.3 14.6s-14.6 22.3-14.6 37.6c0 15.4 4.9 27.9 14.6 37.6s21.8 14.6 36.3 14.6 26.6-4.9 36.3-14.6c9.7-9.7 14.6-22.3 14.6-37.6 0-15.4-4.9-27.9-14.6-37.6s-21.8-14.6-36.3-14.6zm16.1 70.3c-4.1 4.9-9.5 7.3-16.1 7.3s-12-2.4-16.1-7.3c-4.1-4.9-6.2-10.9-6.2-18s2.1-13.2 6.2-18c4.1-4.9 9.5-7.3 16.1-7.3s12 2.4 16.1 7.3c4.1 4.9 6.2 10.9 6.2 18s-2 13.1-6.2 18zm106.7-10.2c0 5.1-1.5 9.2-4.5 12.5s-7.3 4.9-12.8 4.9c-5.6 0-9.9-1.6-12.9-4.9-3-3.3-4.5-7.4-4.5-12.5v-58.5h-28.6v59.5c0 13 3.9 23.5 11.6 31.4s19.2 11.9 34.4 11.9c15.1 0 26.6-4 34.3-11.9s11.6-18.4 11.6-31.6v-59.4h-28.6v58.6zm120.6-45.1c-9.5-8.9-21.8-13.4-36.8-13.4h-41.5v101h41.7c15 0 27.2-4.5 36.7-13.5s14.2-21.4 14.2-37.1-4.8-28-14.3-37zm-20.5 54c-4.1 4.6-9.5 7-16.3 7h-13.4v-47.7h13.5c7.2 0 12.8 2.2 16.6 6.5s5.7 10.1 5.7 17.3c.1 6.6-2 12.3-6.1 16.9zm-1060.2-68.9h17.7v104.4h-17.7V915.2z"/></svg>